<?xml version="1.0" standalone="no"?>
<!DOCTYPE svg PUBLIC "-//W3C//DTD SVG 20010904//EN"
 "http://www.w3.org/TR/2001/REC-SVG-20010904/DTD/svg10.dtd">
<svg version="1.0" xmlns="http://www.w3.org/2000/svg"
 width="1024.000000pt" height="1024.000000pt" viewBox="0 0 1024.000000 1024.000000"
 preserveAspectRatio="xMidYMid meet">

<g transform="translate(0.000000,1024.000000) scale(0.100000,-0.100000)"
fill="#000000" stroke="none">
<path d="M4920 8710 c-320 -24 -679 -105 -1005 -225 -181 -66 -526 -244 -705
-363 -220 -147 -354 -256 -541 -442 -456 -455 -769 -988 -919 -1567 -79 -303
-110 -569 -110 -931 0 -320 13 -474 66 -746 125 -643 433 -1229 927 -1760 565
-607 1332 -992 2156 -1082 121 -13 217 -15 469 -11 331 5 393 11 650 63 845
172 1594 676 2133 1435 310 437 503 879 599 1369 87 446 87 1033 0 1453 -91
444 -255 840 -500 1210 -138 207 -250 346 -425 526 -268 275 -487 441 -838
637 -414 230 -846 369 -1322 424 -125 15 -497 20 -635 10z m630 -325 c495 -61
966 -236 1395 -519 847 -559 1363 -1416 1435 -2381 34 -468 -19 -949 -150
-1345 -79 -240 -157 -413 -287 -632 -71 -120 -77 -127 -112 -132 -157 -23
-280 -15 -449 29 -299 79 -559 253 -789 528 -151 181 -257 362 -347 597 -90
232 -131 322 -185 409 l-50 81 42 29 c108 74 303 148 461 176 128 22 344 20
464 -5 174 -35 345 -106 462 -191 46 -34 50 -39 25 -32 -65 17 -246 7 -364
-21 -63 -14 -119 -30 -124 -35 -5 -5 10 -13 40 -19 103 -23 289 -85 538 -180
297 -113 367 -132 498 -132 99 0 207 17 207 32 0 19 -51 109 -82 144 -20 23
-62 51 -104 70 -49 23 -80 45 -99 71 -216 287 -546 494 -918 575 -136 29 -452
32 -594 5 -202 -38 -403 -113 -561 -208 -79 -48 -85 -50 -105 -34 -251 184
-502 265 -823 265 -131 0 -293 -18 -358 -40 -24 -8 -27 -7 -22 7 17 44 56 272
66 383 25 291 33 355 56 442 31 118 116 292 190 391 l57 77 72 -69 c125 -119
233 -153 413 -133 55 7 107 14 116 18 13 5 16 -1 16 -30 0 -47 20 -85 64 -123
57 -51 86 -56 235 -38 160 18 213 41 259 110 34 52 47 107 37 164 l-6 39 51
11 c135 29 220 125 220 249 0 49 -65 283 -166 592 -43 133 -112 212 -230 267
-102 46 -242 41 -1044 -38 -293 -28 -384 -56 -505 -151 -170 -135 -836 -801
-1072 -1073 -428 -494 -679 -924 -904 -1553 -84 -233 -88 -311 -24 -446 85
-180 446 -463 740 -582 74 -30 96 -45 163 -111 185 -184 456 -352 762 -472
288 -113 529 -166 815 -178 372 -15 719 58 1055 222 l148 73 47 -136 c111
-325 292 -611 566 -896 125 -130 125 -112 -6 -191 -289 -174 -584 -290 -911
-359 -171 -36 -314 -54 -529 -67 -580 -35 -1235 119 -1737 409 -945 546 -1566
1519 -1648 2581 -67 878 145 1612 656 2271 112 144 394 429 538 543 435 345
955 577 1491 666 113 19 255 36 370 45 95 7 411 -4 535 -19z m368 -787 c51
-15 97 -62 120 -121 26 -65 121 -385 129 -432 5 -32 3 -35 -32 -52 -34 -16
-38 -16 -49 -1 -7 9 -38 113 -70 230 -32 117 -60 220 -63 228 -3 11 -19 -1
-53 -39 -27 -29 -47 -58 -45 -65 2 -6 23 -78 46 -161 23 -82 45 -158 50 -167
6 -12 6 -25 -1 -37 -13 -25 -71 -61 -98 -61 -23 0 -19 -11 -97 275 -26 94 -48
171 -49 172 -1 2 -24 -19 -50 -46 l-48 -48 47 -168 c25 -92 44 -173 41 -181
-5 -13 -105 -69 -112 -62 -2 2 -28 94 -59 203 -30 109 -57 200 -59 202 -2 2
-26 -12 -55 -31 -55 -38 -106 -51 -251 -66 -128 -13 -203 -12 -278 4 l-63 13
-30 -43 c-36 -53 -36 -63 0 -98 l30 -29 -61 -68 c-233 -260 -328 -500 -364
-917 -24 -287 -49 -397 -126 -544 -119 -230 -401 -401 -702 -426 l-89 -7 -29
-69 c-15 -37 -26 -72 -23 -76 13 -21 119 -35 255 -34 118 0 160 4 228 22 129
35 226 77 362 157 214 125 296 158 475 191 127 23 368 15 480 -16 282 -77 488
-237 638 -495 36 -62 127 -265 127 -283 0 -13 -131 -64 -235 -92 -414 -108
-831 -63 -1240 134 -71 34 -167 86 -212 114 -46 29 -83 48 -83 43 0 -55 83
-182 186 -283 128 -126 251 -201 437 -267 153 -54 263 -72 469 -78 280 -8 462
21 695 112 64 25 117 44 119 42 2 -2 14 -28 27 -57 14 -30 41 -82 61 -115 l35
-59 -22 -24 c-70 -75 -329 -215 -520 -281 -503 -173 -1022 -141 -1559 98 -127
57 -314 165 -394 226 -52 41 -55 45 -31 45 35 0 197 53 267 88 50 25 58 33 92
102 20 41 35 76 33 78 -2 2 -25 -3 -52 -12 -131 -43 -371 -60 -520 -36 -234
38 -490 164 -688 339 -86 76 -125 130 -125 173 0 55 153 458 264 692 241 511
583 949 1262 1615 393 386 464 443 586 470 25 6 227 27 449 47 222 19 436 39
474 43 72 8 97 6 153 -11z m-565 -693 l17 -35 -41 0 c-26 0 -52 8 -72 22 l-30
22 44 12 c64 17 64 17 82 -21z m525 -196 c16 -26 17 -25 -38 -33 l-45 -7 30
30 c37 36 37 36 53 10z m860 -3299 l72 -53 0 -216 -1 -216 -30 35 c-95 109
-209 313 -262 470 -22 62 -67 227 -67 243 0 2 48 -44 108 -103 59 -58 140
-130 180 -160z m426 -245 c94 -42 255 -85 365 -98 l103 -12 -68 -80 c-37 -44
-115 -127 -173 -185 -105 -105 -278 -256 -285 -249 -7 8 -12 649 -5 649 3 0
32 -11 63 -25z"/>
</g>
</svg>
