<?xml version="1.0" encoding="UTF-8" standalone="no"?>
<svg
   version="1.0"
   width="1172.000000pt"
   height="2096.000000pt"
   viewBox="0 0 1172.000000 2096.000000"
   preserveAspectRatio="xMidYMid meet"
   id="svg18"
   sodipodi:docname="Front.svg"
   inkscape:version="1.2 (dc2aeda, 2022-05-15)"
   xmlns:inkscape="http://www.inkscape.org/namespaces/inkscape"
   xmlns:sodipodi="http://sodipodi.sourceforge.net/DTD/sodipodi-0.dtd"
   xmlns="http://www.w3.org/2000/svg"
   xmlns:svg="http://www.w3.org/2000/svg">
  <defs
     id="defs22" />
  <sodipodi:namedview
     id="namedview20"
     pagecolor="#ffffff"
     bordercolor="#000000"
     borderopacity="0.25"
     inkscape:showpageshadow="2"
     inkscape:pageopacity="0.0"
     inkscape:pagecheckerboard="0"
     inkscape:deskcolor="#d1d1d1"
     inkscape:document-units="pt"
     showgrid="false"
     inkscape:zoom="0.36748569"
     inkscape:cx="327.90393"
     inkscape:cy="1397.3333"
     inkscape:window-width="1387"
     inkscape:window-height="1205"
     inkscape:window-x="2240"
     inkscape:window-y="25"
     inkscape:window-maximized="0"
     inkscape:current-layer="svg18" />
  <g
     transform="translate(0.000000,2096.000000) scale(0.100000,-0.100000)"
     fill="#000000"
     stroke="none"
     id="g16">
    <path
       id="path2"
       d="m 5666.9971,20940.005 c -194.9988,0 -213.9971,-2.01 -236.9971,-20.01 -20,-16 -41.0074,-19.995 -107.0068,-19.995 -81,0 -81.9952,0 -124.9952,-40.005 -32.9994,-30 -50.999,-39.99 -78.999,-39.99 -18.2048,0 -18.9126,-27.378 -31.6699,-36.416 20.0143,8.02 34.4259,17.217 65.6689,20.405 57,6 77.0069,20.002 77.0069,52.002 0,23 2.0006,23.998 90,22.998 71.9994,0 96.9883,2.999 122.9883,18.999 27.9994,16 47.0025,18 142.0019,15 61,-2 159.0094,-7.989 219.0088,-13.989 319.7114,-29.422 543.728,-118.69 727.749,-282.393 -47.7129,41.433 -63.7084,87.066 -136.7578,130.386 -47.9994,29 -139,73.008 -150,73.008 -7,0 -23.998,8.995 -37.998,19.995 -15,12 -39.9922,19.995 -61.9922,19.995 -22,0 -47.0069,8.01 -62.0069,20.01 -18.9994,15 -41.0019,19.995 -82.0019,19.995 -38,0 -65.9893,5.995 -88.9893,19.995 -29.9994,18 -50.0109,20.01 -245.0097,20.01 z m 864.7558,-323.394 c 5.4602,-4.741 10.4648,-10.158 15.6446,-14.926 -1.9282,1.803 -1.4385,5.521 -3.3985,7.309 -3.5869,3.279 -8.6275,4.398 -12.2461,7.617 z m 15.6446,-14.926 c 110.2197,-103.068 171.0171,-228.987 194.6045,-417.686 12.9994,-106 1.996,-281.992 -29.004,-451.992 -20.9994,-119 -25.9941,-107.004 -53.9941,120.996 -33,273 -83.0006,432.994 -165,533.994 -54.9994,67 -88.9992,72.004 -217.998,29.004 -341.9982,-113 -742.0051,-136.997 -944.0039,-56.997 -29,12 -66.9981,20.991 -82.9981,20.991 -72.9994,0 -150.0098,-66.99 -200.0098,-174.99 -46.9994,-99 -58.997,-179.999 -56.997,-378.999 0,-97 -1.9991,-179.007 -3.9991,-182.007 -17.9994,-17 -87.9931,347.999 -87.9931,453.999 1,195 59.9947,404.001 143.9941,506.001 33,40 40.0049,57.008 40.0049,88.008 -1,21 -9.0029,46.997 -18.0029,56.997 -2.1906,2.191 -2.015,3.312 -3.8965,5.596 -7.8045,-15.1 -27.6806,-12.11 -30.1025,-34.6 -3,-34 -22.004,-84.002 -59.004,-157.002 -29.9994,-60 -60.9941,-136.998 -68.9941,-172.998 -63.9994,-280 -61.0072,-401.994 16.9922,-698.994 18,-70 29.0049,-130.009 25.0049,-144.009 -3,-14 -24.0069,-47.992 -47.0069,-76.992 -21.9994,-28 -46.9902,-71.998 -54.9902,-97.998 -18,-61 -18.0039,-182 0.9961,-270 34,-162 86.0074,-240.001 167.0068,-251.001 L 5055,18845 l 27.9932,-105 c 15.9994,-58 33.0127,-126.003 38.0127,-153.003 11.9994,-58 5.9873,-554.003 -8.0127,-618.003 -15,-71 -55.9903,-131.987 -114.9903,-171.987 -20.7952,-13.625 -42.3699,-31.241 -62.3877,-47.329 23.849,17.099 84.9648,37.841 109.3799,59.326 l 60,52.998 3.0029,-194.004 c 2,-113 -0.998,-214.003 -7.998,-243.003 -6,-28 -19.0039,-64.002 -29.0039,-82.002 -26,-41 -98.9996,-89.999 -183.999,-123.999 l -69.9903,-26.997 -53.0127,18.999 c -158.9988,56 -384.9967,98.009 -525.9961,99.009 -42.9994,0 -78.0029,3.994 -78.0029,8.994 0,5 36.9981,37.005 82.9981,70.005 66.9994,49 132.01,81.997 354.0088,176.997 133.5524,56.901 147.8008,81.187 210.6738,114.272 -0.1994,-0.153 -0.4776,-0.124 -0.6738,-0.278 -14,-11 -32.0049,-19.995 -40.0049,-19.995 -8,0 -25.9942,-8.995 -38.9942,-19.995 -14,-10 -44.0019,-22.001 -67.0019,-26.001 -22,-4 -41.001,-10.004 -41.001,-14.004 0,-10 -47.0049,-30 -70.0049,-30 -11,0 -19.9951,-3.998 -19.9951,-7.998 0,-11 -45.9947,-32.007 -68.9941,-32.007 -10,0 -30.0045,-8.995 -44.0039,-19.995 -14,-11 -35.9952,-19.995 -49.9952,-19.995 -13,0 -30.0019,-7.011 -37.0019,-16.011 -8,-8 -27.0039,-21.989 -44.0039,-28.989 -17,-8 -57.9967,-35.004 -90.9961,-59.004 -105.9994,-79 -160.0069,-105.996 -212.0069,-105.996 -31.9994,0 -55.9931,-7.01 -72.9931,-20.01 -16,-13 -41.001,-19.995 -71.001,-19.995 -33,0 -50.999,-5.995 -63.999,-19.995 -14,-16 -31.0069,-20.01 -77.0069,-20.01 -44.9994,0 -66.0054,-4.995 -85.0048,-19.995 -14,-11 -33.9893,-19.995 -43.9893,-19.995 -19,0 -140.0039,-58.001 -149.0039,-71.001 -3,-4 -18.9951,-11.004 -34.9951,-14.004 -17,-4 -51.0069,-24.996 -77.0069,-45.996 -25.9994,-22 -50.997,-39.009 -56.997,-39.009 -5,0 -28.9981,-20.992 -52.9981,-46.992 -23.9994,-26 -55.0088,-57.997 -69.0088,-71.997 -13.9994,-15 -35.999,-42.011 -48.999,-61.011 -13,-19 -37.9941,-50.997 -53.9941,-71.997 -79.9994,-95 -247.9996,-506.003 -333.999,-813.003 -22,-78 -47.001,-155.002 -56.001,-172.002 -9,-18 -15.9961,-38 -15.9961,-45 0,-29 -58.9981,-135.993 -97.9981,-177.993 -22.9994,-24 -42.0117,-49.001 -42.0117,-56.001 0,-6 -17.9941,-31.001 -38.9941,-56.001 -47,-53 -297.002,-499.995 -322.002,-574.995 -10,-28 -39.9986,-94.001 -67.998,-146.001 -28,-51 -51.0059,-100.003 -51.0059,-108.003 0,-18 -51.9986,-126.994 -97.998,-203.994 -44,-74 -81.0016,-117.998 -206.001,-247.998 -54,-56 -111.002,-121.009 -127.002,-144.009 -15.9994,-23 -31.9912,-43 -35.9912,-45 -14,-6 -92.0049,-103.994 -115.0049,-143.994 -11.9994,-22 -32.0039,-48.004 -44.0039,-59.004 -12.9994,-11 -40.9927,-51 -61.9921,-90 -66,-119 -93.0055,-168.005 -130.0049,-235.005 -19,-36 -44.9971,-83 -56.9971,-105 -12,-22 -27.999,-57.995 -33.999,-79.995 -7,-22 -30.0059,-72.006 -51.0059,-111.006 -20,-39 -42.99516,-87.995 -49.9951,-109.995 -6.99994,-21 -24.00207,-63.003 -37.00195,-93.003 -13.99994,-30 -30.99811,-70 -37.99805,-90 -7.99994,-20 -35.00012,-85.001 -60,-146.001 -25.99982,-60 -54.99518,-133.993 -64.99512,-162.993 -10.99994,-29 -28.00885,-70 -39.00879,-90 -11.99988,-20 -31.9923,-68.007 -46.99218,-107.007 -56.9997,-155 -72.008,-191.994 -103.00782,-248.994 -16.99988,-32 -30.99609,-65.008 -30.99609,-73.008 0,-7 -16.00207,-45.986 -37.00195,-85.986 -34.99982,-69 -60.00415,-133.002 -104.00391,-262.002 -11.99994,-33 -23.99322,-64.005 -27.99316,-70.005 -4,-5 -16.00104,-40.995 -26.00098,-79.995 -9.99994,-38 -26.00592,-87.999 -36.00586,-108.999 -10.99994,-22 -18.99902,-47.005 -18.99902,-55.005 0,-9 -10.9903,-35.004 -24.99024,-59.004 -13.99988,-24 -31.00494,-66.003 -40.00488,-93.003 -11.99994,-42 -87.99432,-197.994 -113.99414,-233.994 -4,-5 -14.00592,-30.005 -21.00586,-55.005 -6.99994,-25 -22.002996,-62.99 -33.00293,-84.99 -21.999868,-44 -33.003019,-135.01 -48.002929,-410.01 -12.999922,-227 -12.996022,-255 -0.996094,-360 11.999928,-99.9988 64.008913,-284.0009 84.008793,-296.0009 24.99982,-15.9994 84.98949,-8.9955 118.98925,14.0039 17.99994,12 42.00885,40.9952 54.00879,64.9952 12.99994,26.9994 26.99811,42.0117 37.99805,42.0117 29.99982,0 74.99713,31 86.99707,60 5.99994,14 12,116.9951 15,229.9951 4,215 5.99645,231 60.99609,360 21.99988,53 27.00391,81.998 29.00391,157.998 2,139 20.99713,138.004 26.99707,-0.996 4,-78 10.00592,-121.003 21.00586,-138.003 7.99994,-13 20.00098,-41.999 26.00098,-63.999 25.99982,-96 87.99169,-137.005 170.99121,-115.005 80.99952,22 106.0108,94.01 121.01074,335.01 11.99994,206 37.00122,320.997 86.00098,401.997 47.99946,78 62.98826,125.001 62.98826,191.001 0,53 -5.0025,74.999 -37.0019,168.999 -13.00012,38 -11.99478,45.001 10.0048,101.001 65,159 219.0009,322.995 528.9991,559.995 199.9988,154 348.0051,304.002 524.0039,532.002 129.9988,167 209.001,292.995 296.001,469.995 149.9988,304 167.9988,333 431.997,690 320.9982,435 475.0075,629.005 602.0069,760.005 70.9994,74 147.999,160.005 168.999,190.005 21,30 41.9961,58.988 45.9961,62.988 4,5 11.9922,-5.99 16.9922,-24.99 138.9988,-445 206.0094,-617.008 369.0088,-943.008 78.9994,-157 126.0029,-276.993 153.0029,-387.993 28,-113 45,-399.002 30,-487.002 -7,-36 -16.002,-104.995 -22.002,-154.995 -5,-49 -12.999,-121.005 -18.999,-160.005 -5,-38 -13.0029,-113 -18.0029,-165 -11,-119 -28.001,-263.998 -41.001,-352.998 -6,-37 -10.0049,-84.996 -10.0049,-105.996 0,-22 -3.9902,-61.008 -9.9902,-88.008 -5,-26 -16.0049,-102.003 -25.0049,-168.003 -9,-66 -20.0049,-147 -25.0049,-180 -5,-33 -13.9951,-100 -19.9951,-150 -26,-202 -83.0074,-482 -152.0068,-750 -6,-22 -15.9942,-69 -23.9942,-105 -7,-36 -22.0029,-107.99 -33.0029,-159.99 -12,-52 -25,-120 -30,-150 -5,-30 -17.9893,-102.005 -28.9893,-160.005 -30.9994,-153.9988 -59.0107,-329.0006 -76.0107,-465 -8,-65.9994 -17.9912,-140 -20.9912,-165 -7,-50.9994 -21.0098,-203.9963 -35.0098,-364.9951 -30,-354.9982 -35.9902,-1055.0018 -9.9902,-1305 6,-52 17.001,-165.0055 26.001,-250.0049 25.9994,-257.9982 73.9986,-526.0018 142.998,-795 21,-81.9994 40.9893,-175.0049 43.9893,-205.0049 6,-63.9994 -7.9981,-298.0025 -22.9981,-382.0019 -25,-139.9994 -28.9898,-168.9987 -43.9892,-277.9981 -9,-62.9994 -20.0049,-144 -25.0049,-180 -11,-70.9994 -40.001,-176.0006 -71.001,-255 -38,-97.9994 -108.0059,-371.0012 -141.0059,-555 -32.9994,-181.9988 -52.998,-454.992 -52.998,-729.9902 0,-293.9982 12.9986,-457.0122 67.998,-860.0098 9,-62.9994 27.001,-212.0006 41.001,-330 41,-357.9976 46.0059,-393.9951 51.0059,-424.9951 7,-38 22,-248.0041 30,-423.0029 4,-83.9994 3.0004,-152.9957 -3.999,-184.9951 -6,-29 -16.002,-92.0021 -22.002,-142.002 -6,-49 -18.0049,-118.9957 -25.0049,-154.9951 -7,-36 -19.001,-92.0098 -26.001,-125.0098 -11.9994,-60.9994 -80.9888,-201.9971 -122.9882,-251.9971 -34,-40.9994 -108.002,-159.0035 -142.002,-228.0029 -33,-65.9994 -96.0002,-133.99209 -258.999,-275.99119 -119.9994,-104.9994 -228.0069,-234.99755 -257.0069,-311.99707 -31.9994,-83.99952 -19.9994,-155.0138 30,-184.01368 16,-8.99994 32.9981,-25.98736 37.9981,-36.9873 5,-11.99994 23.0049,-30.00104 40.0049,-41.00098 18,-10.99994 39.9951,-32.00299 49.9951,-48.00293 22,-30.99982 70.0035,-56.99707 108.0029,-56.99707 14,0 26.001,-4.00879 26.001,-9.00879 0,-4.99994 9.9986,-12.996108 22.998,-15.99609 12,-3.999976 36.0094,-13.005907 54.0088,-21.005859 28,-11.999928 36.9932,-11.999928 72.9932,0 39,12.999922 44.0074,13.012575 77.0068,-6.987305 30,-16.999898 50.9991,-20.009766 138.9991,-20.009766 98.9994,0 105.9927,2.007016 151.9921,32.006836 28,16.999898 69.003,57.992424 93.003,91.992184 31.9994,43.99976 58.9937,69.00696 102.9931,92.00684 128.9994,68.99958 193.0127,157.0017 203.0127,281.00098 9,100.9994 33.9934,131.99065 166.9922,204.99023 167.9994,92.99946 201.0059,176.01308 171.0059,432.01176 -24,194.9988 -18.001,315.9961 18.999,390.9961 36,73.9994 43.001,164.9953 26.001,368.9941 -30,356.9976 41.991,764.0067 268.9892,1522.0019 56,184.9994 77.0094,239.9991 114.0088,288.9991 72,96.9994 95.9932,181.9992 102.9932,367.998 6,148.9994 0.9994,214.0128 -60,755.0098 -33,290.9982 -41.9971,457.9883 -26.9971,512.9883 11,38.9994 62.0012,135.0076 195,366.0058 137.9994,240.9988 204.001,468.0077 236.001,816.0059 51.9994,559.9964 156.0002,1036.9913 333.999,1532.9883 90.9994,252.9982 204.9957,604.0074 229.9951,707.0068 65,270.9982 81.0069,390.0018 92.0069,660 9,201.9988 21.998,193.9988 22.998,-15 1,-169.9988 12.002,-263.9963 52.002,-454.9951 57.9994,-275.9982 143.9928,-560.9999 271.9922,-907.9981 159.9988,-430.997 261.0025,-880.0098 322.0019,-1427.0068 57,-516.997 89.0032,-625.0063 307.002,-1019.0039 66.9994,-119.9994 128,-236.9996 135,-258.999 16,-46 13.0043,-225.9934 -4.9951,-361.9922 -6,-44 -15.0059,-120.0098 -21.0059,-170.0098 -5,-48.9994 -19,-161.0025 -30,-247.0019 -16,-118.9994 -21.9981,-217.9915 -22.9981,-399.9903 -1,-273.9982 7.0075,-317.9986 77.0069,-427.998 49.9994,-78.9994 79.9912,-146.0026 110.9912,-247.002 C 7241.9949,2946.0065 7321,2610.9992 7350,2326.001 c 9,-80.9994 9.9951,-177.9963 4.9951,-304.9951 -4,-101.9994 -7.998,-220.002 -7.998,-262.002 1,-75.9994 22.0029,-174.0035 48.0029,-213.0029 22,-33 27,-140.0065 15,-276.0059 -21,-212.9988 -21.9941,-270.99925 -8.9941,-318.99901 27.9994,-104.99934 59.9976,-142.98967 176.997,-208.98925 118.9994,-66.99964 146.001,-99.00744 161.001,-197.00684 6,-42.99976 20,-97.00012 30,-120 24,-53.9997 99.002,-126.00024 172.002,-165 30.9994,-15.99988 67.9873,-45.00305 81.9873,-63.00293 C 8060.9926,146.99737 8118,90.004883 8130,90.004883 c 6,0 24.001,-10.002025 41.001,-22.001953 26.9994,-19.99988 40.9986,-22.005854 127.998,-21.00586 77.9994,0.999994 105.0049,6.00595 130.0049,21.00586 29,17.999892 34.9893,17.995039 73.9893,4.995117 36.9994,-12.999922 45,-13.003822 75,0.996094 17.9994,8.999946 39.0107,16.010742 46.0107,16.010742 8,0 18.9902,5.989311 24.9902,13.989257 6,6.99994 30.0133,17.00977 53.0127,20.00977 32,4.99994 51.9981,16.99535 82.9981,49.99511 22,22.99988 47.9937,44.99903 57.9931,48.99903 9,3.99994 26.9981,21.99719 37.9981,41.99707 12,18.99988 26.0029,35.00976 33.0029,35.00976 7,0 23.002,12.00104 37.002,26.00098 37.9994,39.99976 32.9916,108.99767 -13.0078,206.99707 -20,41.99976 -47.9961,86.99035 -60.9961,99.99023 -13,11.99994 -44.9971,46.01093 -71.9971,76.01075 -48,54.99964 -146.9971,140.99121 -161.9971,140.99121 -24.9994,1 -125.999,114.00536 -168.999,190.00488 -27,47 -63.0098,102.0035 -80.0098,123.0029 -30.9994,37 -202.9931,344.9903 -222.9931,399.9903 -6,14.9994 -15.0059,65.0103 -21.0059,110.0097 -5,45 -18,143.0026 -30,217.002 -34.9994,234.9982 -27.9902,417.9938 35.0098,954.9902 9,71.9994 20.001,173.0006 26.001,225 5,52 22.9902,194.0006 39.9902,315 66.9994,494.997 82.0088,813.0116 54.0088,1145.0098 -14,166.9988 -19.0108,208.9963 -46.0108,394.9951 -17.9994,122.9994 -83.9947,390.0061 -143.9941,580.0049 -55.9994,177.9988 -69.9951,240.9957 -79.9951,364.9951 -9,113.9994 -15.001,156.0055 -41.001,265.0049 -20,80.9994 -25,138.0006 -30,300 L 7927.998,6635 l 40.0049,154.9951 c 124.9994,475.997 191.9971,1047.0036 191.9971,1635 0,299.9982 -27.0039,770.0067 -59.0039,1030.0049 -6,44 -17.001,139.0006 -26.001,210 -16,140.9994 -27.9947,210.9984 -83.9941,525.996 -30,164 -89.0059,440.999 -126.0059,588.999 -64.9994,259 -124,586.01 -165,905.01 -5,44 -15.9941,129.99 -23.9941,189.99 -24,172 -40.002,310.005 -67.002,565.005 -6,58 -19.9961,174.995 -30.9961,259.995 -51.9994,409 -50.0058,662.01 8.9942,845.01 25.9994,83 59.9986,159.995 172.998,394.995 146.9994,306 259.0108,599.004 316.0108,824.004 l 16.9921,68.994 21.0059,-26.001 c 12,-14 37.001,-47.004 56.001,-74.004 19,-26 83.9986,-96.991 142.998,-155.991 126.9994,-127 177.995,-192.002 477.9932,-592.002 352.9976,-472 377.0045,-506.005 509.0039,-760.005 166.9988,-320 173.0055,-330.99 265.0049,-459.99 74.9994,-105 115.9947,-157.009 233.9941,-294.009 104.9994,-124 291.996,-296.001 435.996,-401.001 82,-60 275.008,-230.995 328.008,-289.995 47,-52 130.992,-191.005 151.992,-250.005 14,-41 9.005,-84.992 -19.995,-151.992 -18,-44 -19.999,-141.009 -3.999,-189.009 7,-19 26.996,-58.989 45.996,-88.989 46,-76 71.998,-174.005 82.998,-310.005 25,-295 27.999,-319.003 48.999,-363.003 26,-54 58.002,-71.997 127.002,-71.997 45,0 56.998,4.004 82.998,29.004 52,50 72.999,122.989 78.999,268.989 5,158 24.003,169.006 33.003,21.006 7,-106 14.007,-136.006 47.007,-201.006 31,-60 44,-160.995 45,-364.995 l 1.992,-180 33.003,-29.0039 c 18,-15.9994 42.997,-28.9892 56.997,-28.9892 18,0 29.004,-9.9981 44.004,-37.9981 34,-65.9994 88.007,-102.0117 152.007,-102.0117 35,0 35.994,2.0002 83.994,183.999 34,127.9999 34.995,136.0119 34.995,327.0119 0,122 -6.999,266.99 -18.999,384.99 -22,208 -21.996,209.999 -150.996,468.999 -45,91 -78.003,168.005 -138.003,325.005 -12,30 -33.991,99.995 -50.991,154.995 -16,55 -38.01,124.003 -50.01,153.003 -12,28 -30.001,75.008 -41.001,103.008 -11,28 -35.994,79.997 -53.994,116.997 -18,37 -37.001,77.992 -41.001,91.992 -4,14 -24,61 -45,105 -21,44 -53.005,118 -70.005,165 -17,47 -48.99,123.01 -69.99,170.01 -21,47 -50.01,118.99 -65.01,159.99 -16,41 -44.991,113.005 -65.991,160.005 -21,47 -47.008,109.003 -58.008,138.003 -12,28 -29.997,76 -41.997,105 -11,28 -43.993,99.002 -72.993,157.002 -29,58 -61.005,125 -70.005,150 -23,64 -172,331.991 -195,350.991 -11,9 -34.002,40.005 -52.002,70.005 -18,30 -43.005,64.999 -55.005,78.999 -13,14 -38.001,44.002 -56.001,67.002 -41,52 -160.991,188.998 -230.991,262.998 -51,53 -83.0075,91 -167.0069,195 -22,28 -53.9902,83.995 -69.9902,124.995 -61,155 -92.0108,227.012 -136.0108,312.012 -23.9994,48 -56.9931,117.991 -72.9931,155.991 -63,157 -237.0065,444.998 -321.0059,532.998 -71.9994,75 -101.001,124.008 -131.001,223.008 -112.9988,375 -125.9927,415.991 -181.9921,560.991 -19,50 -49.0059,132.003 -66.0059,183.003 -39,112 -108.9918,241.003 -155.9912,288.003 -19,19 -35.0098,41.003 -35.0098,48.003 0,17 -29.0006,46.994 -135,143.994 -72.9994,66 -100.9908,86.003 -174.9902,123.003 -14,7 -35.9996,20.996 -48.999,30.996 -13,10 -34.0108,18.003 -46.0108,18.003 -12,0 -29.9902,8.995 -39.9902,19.995 -10,11 -30,20.01 -45,20.01 -15,0 -35,8.995 -45,19.995 -15,16 -31.0006,19.995 -90,19.995 -59,0 -75,4.01 -90,20.01 -13,15 -31.0098,19.995 -65.0098,19.995 -32,0 -54.9937,5.995 -72.9931,19.995 -18,14 -40.003,20.01 -78.003,20.01 -55.9994,0 -80.0045,12 -179.0039,90 -54.9994,42 -76.001,56 -116.001,75 -16.9994,7 -35.9892,20.989 -43.9892,28.989 -7,9 -25.0049,16.011 -40.0049,16.011 -15,0 -35,8.995 -45,19.995 -10,11 -28.9971,19.995 -41.9971,19.995 -14,0 -36.0097,9.01 -50.0097,20.01 -14,11 -35.9883,19.995 -47.9883,19.995 -12,0 -33.0108,8.003 -46.0108,18.003 -12.9994,11 -40.9927,21.99 -61.9921,24.99 -20,3 -48.9991,15.001 -63.9991,26.001 -14,12 -36.0029,21.006 -48.0029,21.006 -12,0 -30.0049,8.995 -40.0049,19.995 -10,11 -25.9951,20.01 -34.9951,20.01 -9,0 -24.9951,8.995 -34.9951,19.995 -10,11 -23.0039,19.995 -29.0039,19.995 -18,0 -145.9942,120.004 -173.9942,164.004 l -27.0117,41.001 -2.9883,321.006 c -4,318 -4.0121,320.999 21.9873,423.999 14,57 26.001,112.991 26.001,125.991 0,16 6.9981,25.008 22.9981,28.008 12,3 34.0142,6.99 49.0136,9.99 36,8 84.9883,51.01 107.9883,95.01 36,72 51.9981,159.991 52.9981,305.991 2,137 1.0136,141.003 -25.9864,183.003 -14.9994,23 -39.0019,47.002 -52.0019,52.002 -14,5 -30.002,20.995 -37.002,34.995 -7,16 -19.0103,25.005 -35.0097,25.005 -25,0 -30.9897,14.998 -9.9903,22.998 30,11 67.002,270.999 67.002,468.999 0,195 -17.0084,285.998 -73.0078,397.998 -30.5479,62.149 -113.4682,110.018 -169.5996,161.69 z M 4807.6758,17680.273 c 14.0214,10.79 35.4973,19.732 47.3291,19.732 12,0 37.001,13.996 56.001,30.996 5.3752,4.809 16.712,12.33 24.6093,18.677 -27.8962,-20.002 -89.757,-49.312 -127.9394,-69.405 z m 254.4287,3074.327 c 6.5394,12.652 15.0667,21.792 25.2246,28.989 -11.3746,-4.558 -37.3242,-7.963 -37.3242,-11.587 0,-2.27 6.251,-10.305 12.0996,-17.402 z m 1242.8906,-390.601 c 88.9994,31 97.0045,31 134.0039,0 74.9994,-63 137.9961,-255.999 165.9961,-513.999 19,-177 38.0108,-278.001 61.0108,-326.001 14.9994,-31 19.9898,-33.999 58.9892,-33.999 52,0 89.0108,-27.007 106.0108,-77.007 15.9994,-50 12.998,-213.994 -7.002,-308.994 -30,-148 -80.0074,-208.002 -167.0068,-202.002 -18,1 -37.9932,-0.995 -42.9932,-4.995 -6,-3 -14.0068,-37.004 -17.0068,-74.004 -4,-37 -18.9991,-109.997 -33.9991,-161.997 -25.9994,-88 -32.9927,-100.008 -91.9921,-163.008 -147.9994,-158 -314.0106,-252.993 -549.0088,-312.993 -62,-15 -64.9909,-14.995 -159.9903,10.005 -68.4054,18.2 -129.1759,50.355 -193.3007,79.072 67.5163,-32.305 117.8895,-88.22 199.2919,-109.072 l 92.0069,-22.998 102.9931,27.993 c 56,15 119.9981,34.993 142.9981,42.993 114.9994,42 249.0045,133.003 359.0039,243.003 41,41 76.0068,72.997 77.0068,71.997 1,-2 4.9981,-252.988 7.9981,-557.988 5,-547 4.9937,-556.001 27.9931,-611.001 12,-31 33.0069,-65.999 47.0069,-78.999 14,-13 24.9902,-27.011 24.9902,-31.011 0,-4 -32.9937,-4.992 -72.9931,-1.992 -158.9994,12 -421.9987,-33.004 -517.9981,-89.004 -64.9994,-38 -132.9996,-100.998 -168.999,-157.998 l -32.0069,-49.995 -38.9941,58.989 c -105.9994,158 -296.0116,232.005 -605.0098,235.005 l -150.9961,0.996 24.0088,29.004 c 13,16 33.9961,47.005 45.9961,70.005 21,40 21.9932,52.997 27.9932,470.991 4,237 6.998,494.003 7.998,573.003 0,78 1.9991,142.002 3.9991,142.002 1,0 45.0127,-42.003 98.0127,-93.003 42.2521,-40.48 102.0665,-48.717 146.8505,-80.361 -105.4397,77.52 -247.8515,208.583 -247.8515,244.365 0,9 -7.9996,40.005 -18.999,70.005 -10,30 -24,91.999 -30,138.999 -6,46 -13.0108,85.989 -16.0108,88.989 -3,2 -30,5.006 -60,6.006 -64.9994,1 -92.999,22.006 -123.999,96.006 -24,56 -50.9912,214.999 -50.9912,303.999 0,119 40.9908,184.995 114.9902,184.995 22,0 45.9981,4.997 52.9981,11.997 9,9 12.0117,83.999 12.0117,273.999 0,238 1.9912,268 20.9912,330 27,87 61.0074,145.999 107.0068,183.999 44,37 70.0006,37.01 165,5.01 225.9988,-75 636.994,-46.006 961.9922,68.994 z m -887.1387,-2007.363 c 15.3759,-11.305 22.5208,-27.368 36.1377,-35.64 30.1662,-18.249 76.6582,-29.877 114.712,-46.919 -51.1052,24.452 -104.8444,50.052 -150.8497,82.559 z m 1192.1485,-496.641 72.9931,-60.996 c 39,-34 90.002,-72.997 112.002,-86.997 22,-14 158.008,-76.003 302.0068,-138.003 143.9994,-62 272,-117.995 285,-124.995 36,-18 177.9932,-121.009 177.9932,-129.009 0,-4 -57.002,-9.993 -127.002,-12.993 -157.9988,-7 -380.0035,-53 -513.0029,-105 -44.9994,-17 -189.9971,47.994 -251.9971,113.994 -52.9994,57 -57.9931,84.009 -57.9931,324.009 z m -2375.0098,-605.991 c 22,-2 69.0006,-6.009 105,-9.009 77.9994,-7 290.0006,-48.998 345,-67.998 l 39.0088,-14.004 -99.0088,-46.992 c -223.9988,-106 -371.0012,-232.001 -555,-476.001 -257.9982,-342 -489.9914,-581 -684.9902,-705 -75.9994,-49 -211.0075,-96.999 -347.0069,-123.999 -107.9988,-21 -250.9951,-66.997 -319.9951,-101.997 -20.9994,-11 -42.0068,-18.999 -47.0068,-18.999 -15,0 82.0045,330.99 149.0039,504.99 23,61 56.9961,156.003 75.9961,213.003 100.9994,309 295.01,551.997 534.0088,671.997 199.9988,100 611.9914,189.009 804.9902,174.009 z m 3500.0098,-15 c 114.9994,-16 354.0006,-78.001 450,-116.001 49.9994,-19 125.999,-56.002 168.999,-82.002 195.9988,-114 385.9996,-373.006 468.999,-636.006 14,-44 38.9903,-113.991 54.9903,-155.991 57.9994,-145 172.0019,-515.007 172.0019,-557.007 0,-8 -14.9922,-5.003 -46.9922,11.997 -78.9994,40 -217.9967,85.007 -330.9961,107.007 -118.9988,24 -245.0117,64.993 -312.0117,102.993 -74.9994,42 -249.9957,188.002 -349.9951,292.002 -115.9994,121 -226.9992,253.999 -367.998,438.999 -186.9994,245 -325.9964,364 -544.9952,465 -52.9994,25 -97.0019,48.006 -97.0019,51.006 0,9 133.9996,43.999 243.999,63.999 166.9988,31 339.0016,36.004 491.001,14.004 z M 5070,17183.999 c 66.9994,8 309.0016,-3.995 386.001,-19.995 149.9988,-30 242.001,-82.002 311.001,-172.002 63.9994,-84 64.996,-96.005 60.996,-648.999 -3.9994,-535 -4,-535.006 -60,-666.006 -93.9994,-224 -354.9998,-442.997 -637.998,-536.997 -439.9976,-146 -935.0086,-12.002 -1247.0068,337.998 -220.9988,247 -323.9944,316.005 -507.9932,340.005 l -60,7.998 45,22.998 c 83.9994,44 235.0055,168.998 370.0049,307.998 148.9988,152 219.9943,234.999 387.9931,453.999 177.9994,232 281.0052,323.003 479.004,423.003 154.9988,78 318.9992,130 472.998,150 z M 6360,17180 c 110.9994,13 321.0006,4.001 420,-18.999 254.9982,-58 503.0051,-192.001 659.0039,-356.001 36,-39 113.9981,-133 172.9981,-210 153.9988,-203 257.0035,-324.005 393.0029,-460.005 119.9994,-121 290.9986,-258.989 352.998,-283.989 17,-7 31.9922,-17.006 31.9922,-21.006 0,-4 -23.9986,-9.993 -52.998,-12.993 -150.9994,-15 -266.9997,-84 -408.9991,-240 -185.9988,-204 -271.9953,-275.012 -428.9941,-357.012 -274.9982,-142 -558.0067,-174.99 -850.0049,-99.99 -289.9982,74 -568.9947,288 -683.9941,525 -71.9994,147 -75,173.998 -75,727.998 0,561.994 -0.999,551.992 86.001,646.992 81.9994,88 200.9953,137.005 383.9941,160.005 z M 3105,15759.995 c 103.9994,11 277.9932,4 342.9932,-15 80.9994,-24 131.0117,-68.994 177.0117,-158.994 l 39.9902,-78.003 3.0029,-147.993 c 6,-248 -36.0006,-411.998 -150,-577.998 -15.9994,-24 -83.9966,-98 -150.996,-165 -81,-81 -182.0046,-200.013 -299.004,-353.013 -291.9982,-378.994 -438.9943,-498.99 -657.9931,-534.99 -200.9988,-34 -348.0098,92.001 -380.0098,326.001 -29,213 47.011,545 215.0098,945 57.9994,137 68.9947,158.99 158.9941,309.99 48,81 121.003,180.006 183.003,246.006 39.9994,42 236.0035,137.999 348.0029,168.999 49.9994,14 125.9951,29.995 169.9951,34.995 z m 5493.0029,0 c 141.9994,-15 245.0036,-44.995 378.003,-109.995 139.9988,-68 188.9976,-114.002 296.997,-277.002 160.9994,-242 310.0026,-602.999 382.002,-918.999 38.9994,-170 45.9916,-373.995 16.9922,-469.995 -36,-119 -90.9977,-190.01 -176.9971,-230.01 -67.9994,-31 -128.0055,-37.994 -205.0049,-23.994 -199.9988,36 -357.991,164.995 -613.9892,499.995 -177.9994,234 -230.9997,295.999 -333.9991,393.999 -205.9988,197 -281.0078,365.002 -298.0078,667.002 -10,172 19.9957,284.997 94.9951,371.997 78,88 232.0106,121.002 459.0088,97.002 z m -2737.0019,-17.988 c 3,-4 16.0039,-34.002 29.0039,-67.002 13,-33 38.001,-85.005 56.001,-115.005 30.9994,-54 167.9927,-220.005 181.9921,-220.005 4,-1 29.0016,-21 56.001,-45 l 48.999,-43.989 -89.0039,5.991 c -122.9988,8 -190.9951,-8.001 -244.9951,-56.001 l -42.9931,-37.998 -33.003,33.003 c -48.9994,49 -122.9996,67.996 -243.999,60.996 l -97.998,-4.995 56.997,48.003 c 142.9994,119 240.9957,245.996 289.9951,375.996 15,40 29.003,70.006 33.003,66.006 z M 8018.9941,15590 c 5,0 -9e-4,-30.002 -11.0009,-67.002 -27,-93 -19.9922,-332.998 13.0078,-472.998 32.9994,-139 30.0033,-187.005 -30.9961,-385.005 -68.9994,-227 -159.0026,-451.99 -292.002,-729.99 -124.9988,-260 -170.0078,-381.004 -193.0078,-509.004 -26,-150 -17.9902,-429.001 20.0098,-686.001 8,-52 28,-225.005 45,-385.005 17,-159 32.9912,-311.002 35.9912,-337.002 l 7.0019,-47.988 h -100.0048 c -151.9994,0 -254.9977,33.993 -356.9971,117.993 -92.9994,77 -182.002,248.997 -217.002,416.997 -22.9994,112 -24.999,341.005 -3.999,535.005 28,261 14.9994,421.001 -75,934.995 -16,94 -32.9912,221.012 -35.9912,282.012 l -7.0019,111.987 31.9921,66.006 c 41,83 135.0126,177.999 436.0108,438.999 218.9988,190 530.9904,491.994 658.9892,638.994 37,42 71,77.007 75,77.007 z m -4323.999,-10.005 c -5,18 12.0108,5.005 61.0108,-49.995 37.9994,-41 160.9996,-167.001 273.999,-281.001 112.9994,-113 288.0006,-275.999 390,-363.999 222.9988,-191 419.9971,-384.995 446.9971,-439.995 10.9994,-22 22.997,-56.007 26.997,-77.007 10,-54 -9.999,-237.998 -48.999,-457.998 -76.9994,-432 -89.0039,-617.004 -59.0039,-914.004 21,-207 15.0039,-405.996 -15.9961,-525.996 -30,-119 -106.9996,-273.997 -168.999,-341.997 -56,-61 -148.9996,-115.998 -243.999,-142.998 -55,-16 -231.9952,-24.001 -244.9952,-11.001 -3,3 -0.013,56.993 6.9873,117.993 7,62 23.002,213.998 37.002,337.998 13,124 33,295.01 45,380.01 15,111 21.998,213 22.998,360 2,295 -13.9918,355 -185.9912,720 -186.9988,396.994 -285.0088,651.991 -354.0088,920.991 -21.9994,89 -22.9902,99.005 -9.9902,145.005 26,88 46.9981,217.004 52.9981,329.004 4.9994,103 -2.0069,168.99 -32.0069,294.99 z m 2028.999,-390.996 c 57,-16 93.001,-55.998 101.001,-112.998 4,-26 14.0059,-49.998 21.0059,-52.998 21,-8 44.0039,15.992 44.0039,46.992 0,43 40,92.002 90,112.002 92.9994,35 241.9973,18.009 450.9961,-50.991 276.9982,-93 427.9941,-208.012 428.9941,-327.012 0,-17 -14,-75.99 -30,-129.99 -53.9994,-175 -61.9951,-240.999 -64.9951,-573.999 -4,-387 -60.0049,-1551 -85.0049,-1785 -32,-286 -96.9977,-532 -206.9971,-780 -185.9988,-420 -451.9996,-737.007 -618.999,-737.007 -57.9994,0 -117.9937,34.996 -207.9931,120.996 -294.9982,283 -533.0114,808.009 -601.0108,1323.003 -28,216 -81.9951,1264.004 -94.9951,1837.998 -7,350 -10.0035,382 -33.0029,480 -14,58 -33.001,125.004 -41.001,149.004 -50,138 5.9983,234.004 191.9971,329.004 238.9982,123 523.0021,187.996 656.0009,150.996 z m -1503.999,-41.997 c 8,-3 49.0006,-18.995 90,-34.995 161.9994,-66 355.0129,-99.004 522.0117,-89.004 l 100.9864,4.995 -45.9961,-45.996 c -89.9994,-93 -99.0039,-142.007 -59.0039,-302.007 16.9994,-63 29.0078,-115.997 28.0078,-116.997 -1,-1 -48.9967,44.005 -105.9961,100.005 -58,56 -187.9996,174.002 -288.999,262.002 -221.9988,192 -261.0108,227.997 -241.0108,221.997 z M 7500,15136.997 c -79.9994,-62 -439.0074,-383.991 -527.0068,-470.991 -62,-61 -112.9981,-104.006 -112.9981,-96.006 0,8 12.0049,52.994 25.0049,98.994 44,148 30.9945,222.004 -55.0049,314.004 l -37.998,41.997 h 161.997 c 141.9994,1 174.0114,4.008 271.0108,28.008 60.9994,15 145.9908,42.996 189.9902,60.996 85.9994,36 109.0049,41.998 85.0049,22.998 z m -5492.0068,-652.002 c 2,-1 -3.9932,-40.001 -12.9932,-86.001 -25,-132 -31.001,-330.992 -11.001,-406.992 38,-150 106.0026,-241.002 217.002,-292.002 66.9994,-30 82.0045,-34.003 164.0039,-33.003 76.9994,0 101.9957,4.996 169.9951,30.996 44,18 96.9932,43.008 117.9932,58.008 20.9994,14 40.0078,24.002 43.0078,22.002 2,-3 -34.9981,-57.999 -82.9981,-123.999 -110.9994,-152 -149.0074,-217.997 -272.0068,-461.997 -131.9994,-262 -228.0012,-407.002 -420,-637.002 -121.9994,-146 -244.9924,-261.005 -440.9912,-415.005 -238.9988,-188 -369.0104,-312.999 -440.0098,-423.999 -50.99958,-80 -57.98954,-87.001 -103.98924,-101.001 -56.99964,-17 -135.00231,-18.995 -187.00195,-4.995 -76.99958,22 -159.99823,120.992 -187.99805,226.992 -10.99994,39 -9.00769,47.005 16.99219,100.005 38.99976,76 117.99779,262.003 236.99707,558.003 261.99828,647.994 384.00898,913.995 523.00778,1144.995 100.9994,168 185.996,273 473.9942,585 82.9994,89 139.0049,160.006 160.0049,201.006 17.9994,34 33.9912,60.989 35.9912,58.989 z m 7732.0019,-50.991 c 29,-59 84.0016,-127.004 191.001,-239.004 163.9999,-172 322.0009,-360 401.0009,-480 142,-215 323.007,-602.006 587.007,-1260 55,-137 129.992,-317.005 166.992,-400.005 36,-82 69.001,-163.992 71.001,-181.992 6,-35 -30.993,-125 -72.993,-180 -58,-76 -178.998,-110.998 -292.998,-82.998 -50,12 -52.009,13.999 -114.009,108.999 -75,114 -185.997,221.001 -416.997,401.001 -264.9982,206 -415.0071,357.996 -606.0059,615.996 -114.9988,154 -166.9888,240.996 -272.9882,450.996 -112.9994,227 -158.0114,302.998 -271.0108,457.998 -48.9994,69 -90,127.009 -90,129.009 0,2 39.0084,-15.005 88.0078,-40.005 103.9994,-53 213.0026,-77.994 292.002,-68.994 138.9988,17 221.9957,78.998 289.9951,217.998 63.9994,132 73.999,273.991 33.999,500.991 -20,116 -18.0033,122.01 15.9961,50.01 z m -4852.998,-609.009 c 10,42 17.998,-74.995 37.998,-514.995 45,-1020.994 71.0006,-1239.995 180,-1564.995 181.9988,-542 530.0071,-1005 756.0059,-1005 157.9988,0 404.0041,258.995 588.0029,619.995 154.9994,304 238.001,571.001 281.001,911.001 15,119 49,715.005 75,1308.999 3,69 7.9971,157 11.9971,195 4.9994,61 7.0039,65.994 14.0039,38.994 5,-17 18,-91 30,-165 27.9994,-186 34.9882,-417.994 17.9882,-608.994 -17.9994,-200 -16.0009,-441.003 3.9991,-543.003 18.9994,-93 72.0064,-224.992 126.0058,-316.992 73,-122 206.0016,-221.008 341.001,-253.008 27,-6 49.9951,-13.992 49.9951,-16.992 0,-3 -30.9947,-18.003 -68.9941,-33.003 -140.9994,-57 -410.0006,-258.003 -525,-393.003 -173.9988,-204 -267.0026,-394.998 -397.002,-817.998 -181.9988,-587.994 -285.9967,-793.9981 -435.9961,-862.9981 -47.9994,-21.9994 -65.0084,-25.0058 -133.0078,-21.0058 -137.9988,8 -213.9908,74.0041 -309.9902,273.0029 -67.9994,139 -127.0055,298.996 -205.0049,555.996 -111.9994,370 -190.0065,555.009 -306.0059,729.009 -141.9988,213 -407.9924,436.001 -635.9912,536.001 -42.9994,18 -71.0029,34.998 -63.0029,37.998 8,3 46.9971,14.001 86.9971,26.001 84.9994,24 175.0078,81.988 238.0078,152.988 54.9994,60 144.001,238.007 176.001,347.007 30.9994,110 36.9892,369.997 13.9892,611.997 -12,123 -15.001,218.01 -11.001,290.01 8,139 39.003,375.988 63.003,482.988 z m 2710.0049,-1914.99 c 2,0 -33.9952,-36.998 -79.9952,-82.998 -258.9982,-262 -385.0123,-718.019 -507.0117,-1838.0129 -67.9994,-629.9958 -125.9996,-971.9988 -213.999,-1271.997 -87.9994,-296.9982 -160.9953,-448.9997 -308.9941,-633.9991 -79,-99.9994 -107.0088,-155.0035 -114.0088,-228.0029 -3,-31 -8.9932,-58 -12.9932,-60 -8,-5 -99.0026,251.0122 -232.002,650.0098 -147.9988,444.997 -191.0048,662.9926 -205.0048,1029.9902 -4,115.9994 -7.9981,219.0098 -7.9981,230.0098 0,13 9,20.9902 30,24.9902 100.9994,21 209.0045,129.0051 284.0039,284.0039 76.9994,157 173.0055,426.998 265.0049,742.998 104.9994,361 252.0032,608.009 487.002,819.009 105.9994,96 196.0021,155.994 326.0009,218.994 85,42 264.9952,113.005 289.9952,115.005 z m -3476.9971,-5.01 c 0,8 111.9928,-29.997 211.9922,-71.997 190.9988,-80 347.9982,-191.004 506.997,-359.004 107.9994,-114 174.0016,-211.994 251.001,-368.994 57,-116 79.0006,-178.005 210,-595.005 168.9988,-532.9958 294.0061,-739.9999 475.0049,-779.9999 17,-4 28.9971,-11.999 26.9971,-18.999 -1,-6 -6.9971,-123.0002 -11.9971,-258.999 -14,-375.9982 -55.9953,-576.005 -218.9941,-1057.002 C 5383.0065,7840.9987 5364.999,7791 5358.999,7790 c -3,0 -8.9931,25.001 -12.9931,56.001 -8,72.9994 -42.0026,142.9996 -112.002,228.999 -153.9988,191.9988 -238.0098,366.0008 -320.0098,663.999 -83.9994,304.9982 -136.9898,615.0099 -193.9892,1127.0069 -98.9994,888.9941 -156.0026,1210.9991 -277.002,1548.9991 -66.9994,189 -140.9982,310.993 -251.997,417.993 -39,38 -71.001,69.997 -71.001,71.997 z M 4099.9951,11840 c 5,0 33.0035,-24.002 63.0029,-52.002 136.9994,-135 230.0006,-334.993 315,-672.993 67,-270 109.0075,-541.011 182.0069,-1195.005 46.9994,-421.9976 78.9961,-645.0051 120.9961,-854.0039 100.9994,-495.997 219.0051,-794.0022 404.0039,-1016.001 64.9994,-77.9994 102.9912,-160.9967 110.9912,-240.9961 8,-79.9994 -9.001,-256.9953 -41.001,-443.9941 -14,-76.9994 -35.9951,-207.0104 -49.9951,-290.0098 -46,-275.9982 -77,-418.9908 -120,-549.9902 -85.9994,-264.9988 -196.9953,-430.9981 -323.9941,-487.9981 -54,-23.9994 -147.0055,-28.0121 -205.0049,-8.0127 -92.9994,32 -160.003,139.0081 -198.003,317.0069 -31.9994,149.9988 -76.0039,224.0039 -134.0039,224.0039 -11.9994,0 -53,-12.001 -90,-26.001 -185.9988,-69.9994 -269.9986,14.0038 -352.998,352.002 C 3600.9973,7625.0011 3563.0055,8520.006 3670.0049,9485 c 44.9994,398.9976 131.0006,874.001 240,1324.995 62.9994,258 100.9908,466.005 144.9902,790.005 31,231 33,240 45,240 z m 3530.0098,-3.999 c 0,-11 42.9951,-315.001 64.9951,-461.001 32,-216 56.9961,-340.004 105.9961,-539.004 329.9982,-1321.9916 396.0017,-2663.0006 183.0029,-3713.994 -80.9994,-398.9976 -127.9976,-522.0094 -221.997,-579.0088 -49,-30 -104.9987,-28.9932 -187.9981,2.0068 -83.9994,32 -104.0113,30.9926 -136.0107,-2.0068 -38,-41 -52.9883,-76.9987 -77.9883,-187.9981 -41,-181.9988 -88.0035,-267.9947 -168.0029,-308.9941 -133.9994,-67 -280.0026,-25.0043 -382.002,109.9951 -132.9994,175.9988 -215.0006,417.0063 -285,839.0039 -19,115.9994 -44.0049,259.9957 -55.0049,319.9951 -29,155.9994 -49.9951,336.0026 -49.9951,427.002 0,146.9988 18.0006,187.0041 165,378.0029 225.9988,291.9982 366.9957,828.0103 469.9951,1780.0049 83.9994,775.9941 140.0026,1097.9951 247.002,1429.9951 66.9994,209 159.0025,373.003 262.0019,468.003 39,36 66.0059,51.998 66.0059,37.998 z M 513.99902,11780 c 2,0 15.00397,-23.998 29.00391,-52.998 31.99982,-65 94.99157,-129.009 155.99121,-159.009 38.99976,-19 62.0122,-22.998 147.01172,-22.998 h 101.00098 l -4.01368,-39.99 c -3.99994,-30 2.00208,-54.003 22.00196,-93.003 35.99998,-71 36.00678,-155.001 2.00683,-221.001 -73.99952,-138 -87.99713,-172.996 -101.99707,-240.996 C 856.00494,10909.005 845,10803 840,10715 c -15.99988,-262 -32.99663,-304.995 -120.99609,-304.995 -29.99982,0 -42.00788,5.989 -58.00782,28.989 -35.99976,50 -50.99121,134.008 -50.99121,283.008 0,118 -2.0108,140.005 -16.01074,145.005 -42.99976,16 -128.99524,-64.005 -154.99512,-145.005 -18.99988,-58 -48.00121,-113.005 -86.00097,-160.005 -46.99976,-57 -64.99823,-109.991 -97.99805,-275.991 l -26.99707,-138.999 16.99219,-121.011 C 264.995,9881.9972 258.9997,9845.9926 210,9812.9932 c -58.99964,-40 -56.9945,-42.992 -113.994141,182.0068 -32.999802,127 -34.009591,258 -5.009765,555 22.999876,240 32.005366,275.006 115.004886,441.006 82.99946,167 135.9995,297.994 213.99902,533.994 68.99958,208 85.99908,255 93.99902,255 z m 10690.00498,-3.003 c 6,-2 48.991,-118.003 95.991,-258.003 93,-274 116.012,-330.988 192.012,-482.988 106,-211 115,-256.01 150,-710.01 13,-180 9,-220.993 -45,-417.9931 -35,-131.9988 -43.009,-139.0033 -99.009,-89.0039 -32,28 -32.992,32.0084 -31.992,103.0078 0,40 3.998,117.9982 7.998,172.9982 7,87 4.993,116 -17.007,225 -31,153 -37.997,171.99 -86.997,234.99 -41,54 -71.004,109.011 -89.004,166.011 -15,48 -51.995,95.995 -94.995,124.995 -34,23 -75.996,31.992 -75.996,16.992 -6,-316 -15,-381.986 -60,-430.986 -29,-30 -89.012,-30.004 -117.012,0.996 -31,33 -41.994,84.997 -53.994,266.997 -12,201 -38,333.998 -75,397.998 -68,116 -78.999,144.997 -78.999,206.997 0,46 7.004,74.004 29.004,119.004 20,43 26.998,68.007 22.998,92.007 l -6.006,32.988 78.003,-5.991 c 115,-9 178.001,12.99 251.001,84.99 32,33 63.996,77.004 75.996,104.004 10,27 23.008,47 28.008,45 z M 465.99609,10620.005 c 1,0 -2.99029,-21.007 -9.99023,-47.007 -6.99994,-27 -23.00592,-67.992 -36.00586,-91.992 -29.99982,-59 -49.00092,-273.004 -41.00098,-449.004 4,-77 -3.9934,-97.004 -42.99316,-104.004 -16.99988,-3 -21.0069,7.0026 -32.00684,82.002 -6.99994,47 -13.0039,104.994 -14.0039,128.994 0,54 47.00207,286.009 67.00195,324.009 11.99994,24 104.99908,157.002 108.99902,157.002 z m 10784.00391,-15 c 0,20 98.005,-108 115.005,-150 7,-16 24.99,-91.011 39.99,-166.011 l 27.012,-135.996 -16.011,-108.999 c -9,-59.9994 -21.001,-112.9931 -26.001,-117.9931 -5,-5 -18.999,1.9927 -33.999,16.9921 -26,26 -25.995,29.0002 -19.995,123.999 3,54 1.001,158.998 -3.999,232.998 -10,123 -13.996,142.007 -45.996,212.007 -20,42 -36.006,84.003 -36.006,93.003 z m -7410,-4042.9982 40.0049,-36.0058 c 22,-19 56.9922,-43.002 76.9922,-52.002 48.9994,-21 146.0015,-13.9994 206.0009,15 24,11 50.004,21.0059 59.004,21.0059 27.9994,0 47.998,-36.0108 67.998,-121.0108 46,-191.9988 91.0074,-298.0015 152.0068,-356.0009 85,-82 245.9967,-99.9858 360.9961,-40.9864 93.9994,47 213.9981,201.9944 277.9981,357.9932 17,41 34.0058,76.9951 36.0058,79.9951 11,10 -9.0142,-118.9908 -34.0136,-219.9902 -47,-191.9988 -155.9958,-424.0081 -304.9952,-647.0069 -198.9988,-297.9982 -504.9972,-391.0027 -690.996,-209.0039 -23,22 -70.004,86.0065 -104.004,141.0059 -66.9994,109.9994 -138.9927,185.001 -196.9921,206.001 l -37.002,12.9931 4.9951,61.0108 c 3,32.9994 8.001,97.9908 11.001,144.9902 4,47 16.9961,133.0123 30.9961,192.0117 27,121.9994 44.0039,256.9977 44.0039,371.9971 z m 4031.001,-9.0088 c 4,-2 6.998,-47.0054 7.998,-100.0048 2,-119.9994 15.9971,-232.9879 41.9971,-336.9873 11,-44 24.0039,-134.0104 29.0039,-200.0098 5,-66.9994 12,-137.002 15,-157.002 5,-35.9994 4.0043,-36.9888 -49.9951,-62.9882 -65,-32 -107.0065,-79.0085 -186.0059,-208.0079 -97.9994,-157.9988 -179.007,-217.9966 -306.0058,-225.996 -96.9994,-6 -185.9948,22.0015 -278.9942,86.0009 -112.9994,79.9994 -183.0055,164.0051 -295.0049,359.0039 -129.9988,224.9988 -192.9888,378.9905 -227.9882,553.9893 -37,192.9988 -36.0014,196.0072 22.998,73.0078 115.9994,-240.9988 217.9924,-344.9971 365.9912,-371.9971 65,-12 155.0006,-0.01 210,27.9932 82.9994,42 150.0049,161.0065 190.0049,336.0059 42,183.9988 57.0055,201.9892 145.0049,163.9892 105.9994,-45.9994 204,-35.9877 270,27.0117 22,21 42.9961,36.9912 45.9961,35.9912 z M 7980.9961,5660 c 3,0 28.9971,-72.9977 56.9971,-161.9971 C 8173.992,5073.0059 8227,4746.0019 8235,4275.0049 c 4,-250.9988 -7.9957,-435.0067 -49.9951,-745.0049 -22,-160.9988 -54.0059,-424.003 -111.0059,-930 -8,-73.9994 -18.0058,-229.0006 -21.0058,-345 -5,-191.9988 -2.9942,-224.0012 21.0058,-375 14,-90.9994 28.0069,-196.0049 32.0069,-235.0049 9,-92.9994 57.9904,-190.992 238.9892,-474.9902 23,-36 59.0098,-97.9996 80.0098,-138.999 34.9994,-65.99982 50.9904,-83.00156 163.9892,-176.00102 204.9988,-166.99898 303.0108,-285.00261 331.0108,-397.00195 17,-66.99958 7.9906,-92.00983 -39.0088,-110.00977 -28,-10.99988 -39.9932,-22.9942 -42.9932,-38.99414 -2,-15.99988 -15.0049,-29.99713 -40.0049,-41.99707 -20.9994,-8.99994 -37.998,-22.00396 -37.998,-29.0039 0,-25.99988 -42.9996,-57.99317 -78.999,-57.99317 -25,-1 -47.001,-10.00012 -71.001,-30 C 8570,115.00512 8538.0068,112.00018 8492.0068,140 L 8460,159.99512 8418.999,131.00586 c -53.9994,-39.999766 -136.0025,-58.007723 -187.0019,-43.007813 -56,16.999883 -120.9967,70.999443 -165.9961,138.999023 -32,46.9997 -50.003,63.00207 -93.003,82.00195 -68.9994,29.99982 -135.997,89.9945 -161.997,143.99414 -11,22.99988 -22.9971,74.0022 -26.9971,112.00196 -4,38.99976 -13.0098,82.00592 -20.0098,96.00586 -18.9994,37.99976 -84.9898,91.9934 -163.9892,132.99316 -77.9994,40.99976 -134.0039,98.00329 -149.0039,153.00293 -15,53.99943 -13.0049,165.00553 4.9951,295.00493 23,158.9988 13.999,272.9986 -26.001,352.998 -35.9994,71.9994 -39.0004,117.9979 -26.001,420.9961 7,144.9988 6.0118,232.0006 -2.9882,315 -27,243.9982 -98.0065,565.0063 -216.0059,974.0039 -96.9994,337.9982 -120.0059,401.9971 -171.0059,476.9971 -83.9994,122.9988 -88.9892,149.0096 -88.9892,418.0078 1,162.9988 5.9883,275.9908 17.9883,369.9902 29.9994,225.9988 66.0117,579.0045 72.0117,689.0039 3,57 5.998,106.0069 7.998,107.0069 1,2 25.002,-15.002 52.002,-37.002 111.9994,-89.9994 242.9904,-135.0053 358.9892,-126.0059 136.9994,12 242.0065,88.9993 336.0059,247.9981 61.9994,105.9994 104.9986,155.999 157.998,183.999 26,13 49.9981,24.0049 52.9981,25.0049 z M 3738.501,5648.3691 c 15.5,14.125 33.499,0.625 71.499,-24.375 43,-28.9994 72.0074,-64.9947 137.0068,-173.9941 64,-104.9994 138.9987,-180.002 217.9981,-217.002 51.9994,-23.9994 72.0006,-27.9931 150,-27.9931 124.9994,1 213.9996,34.0006 318.999,120 31,25 57.9961,45 60.9961,45 3,0 4.9951,-31.0088 4.9951,-69.0088 0,-75.9994 30,-393.9973 60,-630.9961 46,-367.9976 50.0117,-623.9977 12.0117,-746.9971 -11,-33.9994 -43.0054,-98.0064 -70.0048,-141.0058 -39,-61 -61.0059,-111.9938 -96.0059,-222.9932 -144.9994,-469.997 -230.002,-812.0106 -277.002,-1119.0088 -19.9994,-134.9988 -21,-165.9979 -15,-450.9961 6,-268.9982 5.0098,-312.0049 -9.9902,-355.0049 -9,-26.9994 -23.0068,-56.9873 -32.0068,-66.9873 -25,-27.9994 -28.002,-200.0119 -7.002,-361.0107 31,-238.99862 4.0092,-331.99646 -114.9902,-390.9961 C 4083.0049,782.00018 3980,708.99982 3960,680 c -14,-18.99988 -24,-56.00323 -30,-108.00293 -16,-142.99916 -54.0065,-197.00237 -186.0059,-262.00195 -40.9994,-19.99988 -68.9882,-40.98938 -77.9882,-58.98926 -8,-14.99994 -35.0006,-50.00311 -60,-78.00293 -90,-99.9994 -200.0006,-117.99863 -300,-48.99902 l -48.9991,33.99902 -36.0058,-18.99902 c -20,-9.99994 -43.9942,-18.99903 -53.9942,-18.99903 -22.9994,0 -69.0015,23.98938 -86.0009,43.98926 -8,9.99994 -29.0059,16.01074 -51.0059,16.01074 -30,0 -43.0039,6.0011 -59.0039,26.00098 -12,14.99988 -20.9912,32.99029 -20.9912,39.99023 0,7 -14.0069,17.00196 -32.0069,22.00196 -23.9994,5.99994 -34.0048,15.00891 -40.0048,39.00879 -6,23.99982 -14.9879,32.9981 -36.9873,37.99804 -44,8.99994 -55.003,27.99054 -48.003,84.99024 13,111.99934 93.9987,224.0106 262.9981,365.00976 172.9988,143.99916 204.001,176.00032 236.001,240.00002 16.9994,32.9994 45.0029,82.9951 63.0029,109.9951 71.9994,111.9994 178.9951,292.9996 214.9951,363.999 31,62 39.0039,91.0059 44.0039,156.0059 3,43.9994 11.9951,115.9908 19.9951,159.9902 38,217.9988 40.9975,466.0116 7.9981,770.0098 -50,460.997 -74.001,663.9963 -101.001,859.9951 -50,356.9976 -55.9902,440.9969 -54.9902,769.9951 0,515.997 49.9967,838.0044 195.9961,1282.002 27.9994,85.4994 40.999,127.2476 56.499,141.372 z" />
    <path
       id="path4"
       d="m 6638.042,14427.808 c 1.4969,-5.386 2.9928,-10.775 4.3945,-16.187 4.1624,-4.511 8.5136,-10.019 13.0664,-16.26 5.9124,10.593 0.7066,21.311 -17.4609,32.447 z" />
    <path
       id="path6"
       d="m 5275.2832,14358.286 c 8.2586,-9.516 29.2648,-9.628 68.1592,-2.329 -22.7468,1.53 -45.4642,2.311 -68.1592,2.329 z m 548.54,-64.38 c -2.0499,-0.501 -4.0477,-1.011 -6.2109,-1.465 1.7322,-6.421 3.6592,-12.402 5.0684,-19.599 0.4036,7.02 0.7473,14.044 1.1425,21.064 z" />
    <path
       id="path8"
       d="m 5833.1689,13914.204 c 5.7346,-3.372 11.5748,-6.988 17.6514,-11.147 5.2826,-3.616 8.8484,-8.55 11.543,-14.151 -0.071,6.152 -0.115,12.305 -0.1758,18.457 -9.7771,1.876 -19.4381,4.212 -29.0186,6.841 z m -10.7519,-153.662 c -0.073,0.06 -0.321,-0.08 -0.7617,-0.454 -0.3729,-0.315 -0.7286,-0.649 -1.0987,-0.967 -0.1245,-0.546 -0.2823,-1.001 -0.4101,-1.538 0.9618,1.206 2.4199,2.845 2.2705,2.959 z m 256.3476,-108.94 c 3.5538,-12.081 10.4863,-39.12 16.5674,-51.255 2.792,-5.572 -4.3357,11.691 -6.5039,17.534 1.1849,12.997 1.5404,23.641 1.2158,32.329 -3.4683,0.5 -7.9356,0.872 -11.2793,1.392 z m 194.8975,-131.456 c 4.9398,-10.066 4.6667,-17.799 31.6992,-18.149 -10.7999,5.461 -21.2616,12.076 -31.6992,18.149 z m -109.5703,-10.209 c -0.387,-0.06 1.2934,-2.758 3.501,-5.787 0.8506,-0.04 1.7397,-0.118 2.5927,-0.161 -1.8378,1.842 -3.1591,3.269 -5.2587,5.318 -0.4629,0.451 -0.7271,0.645 -0.835,0.63 z m -376.0986,-7.779 c -6.3581,-1.016 -12.715,-2.049 -19.1016,-2.944 4.4218,-2.804 8.5989,-5.586 13.5498,-9.8 1.1888,5.134 4.0113,8.046 5.5518,12.744 z" />
  </g>
</svg>
