<?xml version="1.0" encoding="UTF-8" standalone="no"?>
<svg
   version="1.0"
   width="1165.000000pt"
   height="2073.000000pt"
   viewBox="0 0 1165.000000 2073.000000"
   preserveAspectRatio="xMidYMid meet"
   id="svg22"
   sodipodi:docname="Back.svg"
   inkscape:version="1.2 (dc2aeda, 2022-05-15)"
   xmlns:inkscape="http://www.inkscape.org/namespaces/inkscape"
   xmlns:sodipodi="http://sodipodi.sourceforge.net/DTD/sodipodi-0.dtd"
   xmlns="http://www.w3.org/2000/svg"
   xmlns:svg="http://www.w3.org/2000/svg">
  <defs
     id="defs26" />
  <sodipodi:namedview
     id="namedview24"
     pagecolor="#ffffff"
     bordercolor="#000000"
     borderopacity="0.25"
     inkscape:showpageshadow="2"
     inkscape:pageopacity="0.0"
     inkscape:pagecheckerboard="0"
     inkscape:deskcolor="#d1d1d1"
     inkscape:document-units="pt"
     showgrid="false"
     inkscape:zoom="0.46490116"
     inkscape:cx="736.71574"
     inkscape:cy="1767.0423"
     inkscape:window-width="1387"
     inkscape:window-height="1205"
     inkscape:window-x="2240"
     inkscape:window-y="25"
     inkscape:window-maximized="0"
     inkscape:current-layer="svg22" />
  <g
     transform="translate(0.000000,2073.000000) scale(0.100000,-0.100000)"
     fill="#000000"
     stroke="none"
     id="g20">
    <path
       id="path2"
       d="M 5404.9951,20710.005 5355,20708.994 c -27,0 -58.002,-3.99 -67.002,-9.99 -8.9981,-5 -54.0067,-46 -100.0048,-90 -77,-75 -103.9991,-95.008 -183.9991,-133.008 -39.9981,-19 -143.9941,-119.995 -143.9941,-139.995 0,-9 -10.996,-48.008 -23.9941,-88.008 -34,-105 -40.001,-213.012 -41.001,-747.993 -1,-353 -5.0039,-490.005 -14.0039,-535.005 -18,-81 -9.001,-265.99 18.999,-369.99 12,-44 36.0049,-114.01 55.0049,-155.01 19,-41 40.9951,-103.995 49.9951,-139.995 39,-161 94,-299.998 135,-337.998 12,-11 24.0068,-43 32.0068,-90 11,-63 9.9864,-77.997 -4.0136,-116.997 -18,-48 -63.9991,-115.005 -78.9991,-115.005 -5,0 -42.9902,-27 -84.9902,-60 -41,-33 -82,-60 -90,-60 -14,0 -107.0058,-43 -164.0039,-75 -14,-8 -37.0059,-15 -51.0059,-15 -14.9981,0 -31.9941,-7 -38.9941,-15 -7,-8 -26.9961,-17.006 -45.9961,-21.006 -18,-3 -38,-11.995 -45,-19.995 -6,-7 -26,-15.995 -45,-19.995 -18,-3 -38.0039,-11.999 -44.0039,-18.999 -6,-8 -25.9932,-17.006 -42.9932,-21.006 -17.9981,-3 -43.0028,-15.005 -56.0009,-25.005 -13,-11 -28.003,-18.999 -33.003,-18.999 -6,0 -21.0097,-8.995 -35.0097,-19.995 -14,-11 -35.9883,-19.995 -47.9883,-19.995 -12,0 -28.0098,-7 -35.0098,-15 -6,-8 -21.9883,-17.006 -32.9883,-21.006 -12,-4 -33.0107,-15.005 -46.0107,-25.005 -16,-13 -39.9961,-18.999 -75.9961,-18.999 -38,0 -59.9961,-5.995 -75.9961,-19.995 l -24.0088,-18.999 96.0059,-0.996 c 196.9962,0 324.0077,-43 494.0039,-165 32.9981,-24 72.9911,-57.008 88.9892,-73.008 l 28.0079,-30 -41.001,-37.002 c -90.9981,-82 -254.0038,-213.992 -450,-361.992 -112.9981,-86 -246.0011,-189.003 -296.001,-228.003 -281.9943,-223 -437.0027,-280.999 -859.9951,-318.999 -145.9981,-14 -237.0098,-35.997 -290.0098,-71.997 -11,-8 -22.9971,-14.004 -26.9971,-14.004 -9.9981,0 47.002,206.995 97.002,349.995 32,90 115.9932,247 177.9932,330 131.9962,177 311.0136,341.007 462.0117,422.007 39.9981,21 53.9931,33.991 42.9931,35.991 -9.9981,2 -30.0039,-5.992 -44.0039,-16.992 -14.9981,-12 -30.9912,-21.006 -35.9912,-21.006 -6,0 -30.9989,-16.994 -56.997,-38.994 -25,-21 -51.0079,-39.997 -58.0079,-41.997 -21.9981,-7 -183.9912,-154.004 -230.9912,-209.004 -126.9962,-149 -236.0127,-319.004 -278.0127,-434.004 -11.9981,-34 -40.999,-113.001 -63.999,-176.001 -23,-63 -50,-144 -60,-180 -27,-102 -45.9971,-137 -101.9971,-195 -93.9981,-96 -117.9951,-124.993 -139.9951,-162.993 -11,-20 -31.0039,-45.997 -44.0039,-56.997 -27.9981,-24 -177.999,-289.006 -198.999,-351.006 -8,-25 -25.996,-65.992 -38.9941,-91.992 -13,-26 -27.9991,-64.005 -33.9991,-85.005 -6,-21 -45.0028,-98.006 -86.0009,-171.006 -42,-73 -76.0108,-137.002 -76.0108,-142.002 0,-5 -14.999,-46.999 -33.999,-93.999 -19,-47 -44.001,-115.988 -56.001,-152.988 -25,-82 -55.995,-133.007 -117.9931,-197.007 C 1473.0039,13959 1378,13856.996 1335,13800.996 c -28,-35 -61.0039,-75 -74.0039,-90 -13,-14 -34.999,-43.991 -48.999,-65.991 -14,-22 -36.9931,-52.002 -50.9912,-67.002 -14,-15 -51.0059,-70.999 -81.0059,-123.999 -30,-54 -74.002,-126.005 -97.00195,-160.005 -23.99962,-34 -50.0041,-81.996 -59.00391,-105.996 -9.99981,-24 -38.99178,-82.009 -65.99121,-129.009 -25.99943,-48 -48.00293,-92.99 -48.00293,-99.99 0,-8 -15.9955,-47.001 -34.99512,-86.001 -18.99962,-40 -35.00976,-76.998 -35.00976,-82.998 0,-6 -10.99043,-36.006 -24.99024,-66.006 -13.99962,-30 -25.00488,-58.995 -25.00488,-64.995 0,-6 -7.00019,-24.997 -15,-41.997 -17.99962,-40 -83.00605,-229.005 -96.00586,-280.005 -4.99981,-21 -15.99433,-48 -23.99414,-60 -6.99981,-12 -22.00312,-56.002 -33.00293,-97.002 -10.99981,-41 -28.99061,-95 -39.99023,-120 -10.99981,-25 -26.00703,-65 -32.00684,-90 -6.99981,-25 -20.00019,-65 -30,-90 -9.99981,-25 -25.99531,-72 -34.99512,-105 -9.99981,-33 -28.00135,-85.001 -41.00097,-116.001 -12.99981,-31 -24.00879,-61.994 -24.00879,-68.994 0,-6 -15.9955,-40 -34.99512,-75 -44.99923,-83 -65.99628,-178.01 -75.99609,-350.01 -4,-77 -12.00684,-159.995 -17.00684,-184.995 -17.99962,-92 -114.00277,-425.995 -157.001953,-544.995 -37.9992742,-109 -33.9889268,-163.01 35.009766,-440.0099 55.998867,-224.9962 58.998807,-234.0038 97.998047,-277.0019 19.99962,-23 69.00369,-64.9991 108.00293,-93.9991 37.99924,-27.9981 95.99862,-76 127.99805,-105 45.99905,-41.9981 60.98963,-50.997 73.98925,-41.997 26.99962,16 61.01289,72.0038 68.0127,112.0019 4,20 17.00019,46.9961 30,60.9961 29.99943,33 43.98926,72.0098 43.98926,125.0098 0,34.9981 -6.99941,50.996 -33.99903,83.9941 -18.99962,23 -41.9914,66.002 -50.99121,97.002 -14.99962,53 -15.00059,60.998 3.99903,142.998 10.99981,47 23.00116,114.996 26.00097,150.996 4,36 10.99238,83 16.99219,105 12.99981,53 78.00293,122.998 78.00293,82.998 0,-6 6.00391,-18.997 14.00391,-26.997 6.99981,-9 22.99921,-64.995 33.99902,-124.995 22.99962,-115 36.99295,-145.002 76.99219,-172.002 57.99886,-38 187.00312,-3.002 198.00293,52.998 5.99981,30 -8.99471,159.008 -38.99414,328.008 -14.99981,86 -16.00567,115.99 -6.00586,219.99 11.99962,134 5.99845,195.006 -26.00098,246.006 -10.99981,19 -36.99745,68.003 -56.99707,108.003 -32.99943,67 -35.99981,80.002 -30,127.002 18.99962,155 226.0027,443.989 589.9951,823.989 303.9943,317 406.0057,455.019 675,915 126.9981,217 245.0067,393.004 423.0029,629.004 169.9981,224 232.0098,300.001 328.0079,401.001 126.9962,132 259.9979,313.002 503.9941,682.002 76.9981,117 142.9971,213.003 146.9971,213.003 4,0 9.0009,-8.007 11.0009,-17.007 115.9981,-424 195.0087,-635 325.0049,-870 150.9981,-272 184.001,-385.996 221.001,-750.996 14,-129 13.9961,-626.001 0.9961,-671.001 -5,-18 -12.0039,-85.996 -14.0039,-150.996 -3,-64 -8.001,-123.001 -11.001,-131.001 -5,-14 -17.9951,-121.009 -34.9951,-279.009 -5,-47 -18.0039,-136.995 -29.0039,-199.995 -11,-63 -20.9912,-129.001 -20.9912,-146.001 0,-16 -3.9981,-34.005 -7.9981,-40.005 -8,-9 -25.0019,-77.999 -37.0019,-153.999 -3,-19 -10.0108,-50.99 -16.0108,-69.99 -5,-19 -13.999,-117.002 -18.999,-217.002 -4,-100 -11,-187.008 -15,-193.008 -4,-6 -14.9902,-43.998 -24.9902,-82.998 -10,-40 -24.999,-86.004 -33.999,-104.004 -18,-34 -66.0059,-214.998 -66.0059,-247.998 0,-12 -8.9951,-46.988 -19.9951,-77.988 -11,-32 -24,-83.005 -30,-115.005 -5,-31 -16.0088,-88.002 -24.0088,-127.002 -23,-100 -35.9961,-171 -45.9961,-240 -10,-63.9981 -15,-96.997 -30,-184.9951 -5,-30 -12.0039,-74.002 -14.0039,-97.002 -3,-21.9981 -8.001,-52.0097 -11.001,-65.0097 -10,-44 -39.9902,-315.0019 -54.9902,-487.9981 -5,-62.9981 -12,-134.9902 -15,-159.9902 -22,-184.9962 -32,-971.0136 -15,-1190.0098 24,-320.9943 83.001,-735.0008 146.001,-1024.9951 22.9981,-105.9981 25.9951,-134.0048 19.9951,-243.0029 -3,-68 -8.001,-126.9971 -11.001,-131.9971 -10,-17 -38.996,-275.0087 -53.9941,-490.0049 -5,-68.9981 -17.001,-183.0019 -26.001,-255 -9,-70.9981 -19.0059,-147.9951 -21.0059,-169.9951 -3,-22 -9.0039,-49 -14.0039,-60 -5,-11 -20.9951,-66.997 -34.9951,-124.9951 -15,-58 -34.9961,-120.0048 -45.9961,-138.0029 -10,-18 -18.999,-39.9991 -18.999,-48.9991 0,-16 -16.0108,-76.0116 -91.0108,-328.0078 -71.9981,-243.9943 -80.998,-328.0076 -82.998,-780 -1,-237.9943 3.001,-409.0019 11.001,-480 13,-112.9981 18.9999,-166.0057 52.998,-510 44,-442.9905 66.001,-658.994 86.001,-834.9902 20,-184.9962 38.0019,-441.0068 37.0019,-550.0049 -1,-135.9981 -27.998,-356.0087 -52.998,-437.0068 -43,-139.9981 -143.9999,-262.99879 -330.9961,-405.99613 -13,-9.99981 -35.0029,-20.99414 -48.0029,-23.99414 -23,-5.99981 -72.001,-33.99862 -116.001,-67.99805 -10,-7.99981 -31,-15 -45,-15 -14,0 -51.9932,-20.0074 -87.9932,-47.00683 -20.6669,-15.63386 -13.2707,-34.27557 -28.3593,-51.1377 5.0113,5.45734 6.1431,8.92652 11.3525,14.13574 43,43.99924 58.997,54.00996 109.9951,65.00977 41,8.99981 68.001,21.99061 86.001,39.99023 15,15.99981 46.0039,33.00489 74.0039,40.00489 65.9981,16.99962 201.0067,133.00249 333.0029,285.00002 57,65.9981 62.9971,81.9979 86.9971,218.9941 44,251.9962 58.001,480.0038 41.001,660 -3,33 -14.9971,164.0117 -26.9971,290.0098 -11,126.9981 -41.0038,435.9988 -67.0019,687.9931 -42,397.9924 -48.001,508.9933 -26.001,439.9952 26,-82 105.0009,-173.9991 168.999,-198.9991 137.9981,-51.9981 261.0009,31.0068 378.999,258.003 134.9981,258.9943 156.001,287.0069 176.001,234.0088 5,-13 13.9951,-70.0039 19.9951,-127.002 28,-249.9943 74.0117,-362.0038 170.0098,-412.0019 47.9981,-25 62.997,-28.0049 124.9951,-25.0049 51.9981,2 83.0087,9.9961 122.0068,30.9961 29,14.9981 53.9903,27.0117 54.9903,27.0117 2,0 -26.9991,-91.0039 -63.9991,-202.002 -167.9962,-509.9905 -323.9989,-1128.0037 -356.997,-1417.998 -17,-153.9981 -17.9981,-190.0117 -7.9981,-290.0098 8,-76.9981 5.9912,-118.9921 -9.0088,-219.99022 C 4090.996,875.00678 4087.0049,799.99734 4090.0049,660 c 8,-414.99221 8.0019,-409.00328 -22.9981,-472.00195 -32.9981,-67.99886 -84.0058,-110.999559 -164.0039,-138.999027 -49.9981,-17.999658 -74.0097,-19.999905 -178.0078,-15 -209.9962,8.999829 -308.997,48.998548 -454.9951,180.996097 -40,36.99924 -61.0068,45.9988 -190.0049,82.99804 -79.9981,22.99962 -191.9921,53.01289 -249.9902,68.0127 -129.6218,31.07361 -178.0008,74.08661 -170.8154,125.6543 -6.4726,-21.11666 -37.7038,-41.20908 -34.1895,-61.65528 6,-33.99924 14.0009,-44.01014 48.999,-65.00976 23,-12.99981 96.0029,-37.99043 161.001,-54.99024 272.9943,-69.99867 364.0039,-100.99978 404.0039,-138.99902 51,-47.99905 114.9932,-93.010374 177.9932,-125.009766 l 52.0019,-26.000977 h 259.9951 258.9991 l 55.0048,50.009766 c 34,30.999427 63.003,69.997827 78.003,101.997067 24,52.99905 24.0058,55.00882 21.0058,363.00293 -3,245.99544 -0.01,331.99176 12.9932,414.99024 12,80.99808 13.9941,141.00678 8.9941,265.00488 -9,226.9962 19.0127,409.0135 136.0108,876.0059 126.9981,505.9905 262.997,926.0047 394.9951,1218.999 26,57.9981 56.002,139 67.002,180 37.9981,143.9962 34.001,476.0027 -11.9971,904.9951 -5,49.9999 -14.0059,139.997 -21.0059,199.9951 -6,61 -19.0039,178.0117 -29.0039,260.0098 -38.9981,316.9943 -43.9952,404.0038 -26.9971,472.0019 19,74 41.0029,111 131.001,217.9981 118.9981,141.9962 192.998,290.0038 240.9961,480 29,111.9981 45.0019,204.9959 90,519.9902 64,445.9924 120.0097,691.0124 306.0059,1346.001 206.9962,730.9867 275.0039,1068.0104 329.0039,1623.999 16,172.9962 31.9951,306.0029 34.9951,303.0029 5,-4.9981 13,-70.0018 30,-232.998 60.9981,-600.9886 138.9989,-993.0133 334.9951,-1680 185.9962,-651.9867 235.0127,-873.0114 331.0108,-1515 70.9981,-467.9905 139.9911,-648.0087 336.9873,-880.0049 28.9981,-33.9981 64.0029,-84.0038 78.0029,-112.0019 32,-62 55.0078,-188.9892 43.0078,-231.9873 -5,-17 -9.0088,-62.0107 -9.0088,-99.0088 0,-38 -3.9941,-75.9903 -8.9941,-84.9903 -9,-17.9981 -27.001,-137.0136 -41.001,-282.0117 -5,-46.9981 -13.9951,-131.9921 -19.9951,-189.9902 -17,-158.9981 -27.0039,-273.0135 -44.0039,-523.0078 -14,-200.9962 -13.9961,-244.0019 -0.9961,-360 15,-139.9981 24.995,-181.0039 72.9931,-292.002 96.9981,-224.9962 127.0069,-304.0018 182.0069,-472.998 138.9962,-422.9924 265.9931,-907.9998 335.9912,-1276.9922 11,-60 20.001,-180.0038 26.001,-360 4,-147.9981 10.9961,-322.00604 15.9961,-385.0049 4,-62.99886 4,-206.99721 0,-319.99512 -11,-293.9943 1.0146,-347.00287 98.0127,-446.000974 l 51.9873,-54.008789 h 259.0136 c 201.9962,0 262.9981,3.004115 277.9981,14.003906 11,6.999867 31,17.005936 45,21.00586 35.9981,10.999791 122.9999,68.998807 172.998,112.998047 42,38.99924 53.9969,43.99371 320.9912,121.99219 37,10.99981 76.001,20.00976 86.001,20.00976 10,0 49.001,8.99159 86.001,20.99121 79.9981,24.99962 144.0088,79.00388 144.0088,123.00293 0,30.16144 -51.5826,53.24748 -85.2393,94.42383 71.258,-92.84763 36.0893,-137.19047 -157.7636,-184.42383 -56,-13.99962 -165.0088,-44.00624 -242.0069,-66.00586 C 8395.997,259.99392 8381.003,253.99924 8335.0049,210 8225.0068,108.0019 8127.9981,60.993723 7980,38.994141 7731.0038,2.9948174 7571.998,73.003173 7522.998,240 c -12.9981,45.99905 -14.0019,79.00247 -7.0019,210 12,203.9962 8.998,389.00874 -7.002,497.00684 -8,48.99905 -12.9931,119.99806 -12.9931,157.99806 1,38.9981 2.0029,123.9921 3.0029,189.9902 5,285.9943 -133.0037,887.0241 -367.998,1606.0108 -67,203.9962 -70.006,220.9942 -43.0079,195.9961 37,-34 106.0039,-56.9971 172.002,-56.9971 53.9981,0 73.9971,5 116.9971,30 89.9981,51.9981 130.0088,148.9959 159.0088,384.9902 22.9981,185.9962 31.994,202.9962 76.9921,142.9981 14,-18 48.0069,-79.9902 77.0069,-137.9883 98.9981,-197.9962 180.0019,-306.001 255,-341.001 52.9981,-25 127.9961,-24.0039 180.9961,0.9961 52.9981,26 120.0049,97.0059 145.0049,156.0059 10.9981,23.9981 23.9892,43.9892 28.9892,43.9892 5,0 7.0098,-5.9971 5.0098,-11.9971 -6,-15.9981 -78.0059,-720.0086 -111.0059,-1083.0029 -30.9981,-340.9924 -41.003,-638.9921 -25.0049,-759.9902 7,-49 24.0127,-153.0117 38.0127,-230.0098 24,-130.9981 27.9892,-143 66.9873,-195 49,-65.99848 251.0118,-269.99998 267.0118,-269.99998 6,0 16.9902,-7.00019 24.9902,-15 9,-7.99981 33.9971,-18.00196 56.9971,-22.00196 28.9981,-3.99981 52.0078,-15.99842 73.0078,-37.99804 21,-22.99962 44.0039,-34.99024 74.0039,-39.99024 53.7349,-9.59567 103.9812,-44.97984 147.7734,-98.84765 -42.1088,48.72596 -69.571,113.84765 -102.7734,113.84765 -18,0 -46.0098,10.99043 -65.0098,24.99024 -19,13.99962 -38.9961,25.00488 -45.9961,25.00488 -6,0 -16.998,6.00391 -22.998,14.00391 -6,6.99981 -26.0097,15.9953 -43.0078,19.99511 -17,3 -51.0019,23.00429 -75,44.00391 C 8472.9951,875.00141 8343.9951,1006 8329.9951,1035 c -8,17 -21.9922,41.9971 -31.9922,56.9971 -20,28.9981 -50.0019,165.0097 -67.0019,298.0078 -6,46.9981 -16.002,119.001 -22.002,161.001 -17,116.9962 -7.9962,234.0139 120,1513.9892 73.9981,734.9867 69.0069,680.0038 77.0069,855 8,206.9962 -17.0108,511.0038 -61.0108,720 -27,128.9981 -73.997,298.0136 -139.9951,500.0098 -101.9981,314.9943 -119,397.0008 -135,649.9951 -12,191.9962 -34.0049,396.998 -55.0049,525.9961 -8,50.9981 -18.9902,143.9971 -24.9902,206.9971 -9,105.9981 -8,123.0097 15,223.0078 25,114.9981 89.001,487.0009 101.001,588.999 3,33 7.9941,61.9951 8.9941,64.9951 2,3 6.0049,44.0019 10.0049,90 4,47 9.001,92.001 11.001,101.001 10.9981,39 33.999,493.0126 33.999,669.0088 0,372.9924 -33.0068,855.9978 -85.0049,1254.9902 -34,259.9962 -78.9951,541.0049 -109.9951,685.0049 -61,285 -96.0069,424.005 -152.0069,610.005 l -64.9951,214.995 -3.999,153.003 c -4,128 -9.9999,178.995 -37.998,304.995 -57,255 -79.0118,403.002 -132.0118,862.002 -20.9981,187 -30.9981,779.994 -15,923.994 37,334 73.0038,450.004 225,719.004 98.9981,175 200.0088,439 287.0069,750 19,67 37.0049,122.007 40.0049,122.007 3,0 59.9873,-82.007 126.9873,-182.007 140.9962,-213 144.0047,-216.991 281.0009,-410.991 103.9981,-147 141.0038,-192.009 315,-384.009 138.9981,-153 448.0137,-567.995 552.0118,-739.995 24.9981,-43 60.999,-99.998 78.999,-127.998 18,-27 65,-106.005 105,-175.005 81.9981,-140 252.0009,-397.997 333.999,-506.997 31,-39 107.9981,-128.007 172.9981,-197.007 417,-443.981 435.992,-466.99 571.992,-669.99 90,-134 132.008,-230.006 133.008,-306.006 0,-48 -7.001,-68.993 -56.001,-162.993 L 10680,10890 l 0.996,-210 c 0,-117 -3.99,-224.007 -9.99,-242.007 -5,-18 -17.012,-72 -27.012,-120 -32,-167 -0.997,-221.99 123.003,-219.99 54,1 87,22.995 120,79.995 22,38 26.001,56 26.001,120 -1,78 4.996,103 30.996,135 13,17 16.009,17.003 39.009,3.003 35,-23 44.993,-51 72.993,-210 38,-207 41,-272.9942 15,-323.9942 -12,-22.9981 -25,-42.0117 -30,-42.0117 -14,0 -41.001,-76.995 -41.001,-117.9931 0,-20 9.01,-50.002 20.01,-67.002 31,-48 35.99,-56.002 69.99,-127.002 18,-36.9981 39.007,-68.997 47.007,-71.997 9,-4 40.991,17.0038 80.991,52.0019 37,32 100.01,81.9931 140.01,110.9912 81,60 126.002,117.0069 142.002,182.0069 6,24 27.995,115.9978 49.995,203.994 21,88 43.995,195.008 49.995,238.008 11,72 10,84.995 -15,184.995 -15,59 -52.002,185.997 -82.002,281.997 -81,261 -92.988,318.012 -92.988,447.012 0,156 -22.012,261.996 -72.012,345.996 -17,29 -92.995,234.997 -169.995,461.997 -214,630.981 -234.003,684.995 -273.003,769.995 -7,17 -19.993,48.005 -27.993,70.005 -49,134 -69.008,182.003 -103.008,243.003 -57,102 -72,132.995 -90,184.995 -10,27 -30.992,62.995 -46.992,79.995 -16,18 -51.995,73.007 -79.995,122.007 -27,50 -67.008,110.004 -88.008,134.004 -22,24 -38.994,48.002 -38.994,52.002 0,5 -21.011,31.996 -46.011,60.996 -25,29 -57.989,68.993 -73.989,87.993 -85,104 -124.012,145.999 -237.012,258.999 -137.9943,139 -172.9989,193.001 -213.9989,326.001 -43.9981,144 -63.996,189.006 -143.9941,336.006 -41,77 -81.0039,155.997 -89.0039,176.997 -58.9981,158 -92.997,233.005 -154.9951,340.005 -39,67 -71.001,126.001 -71.001,131.001 0,4 -21.0087,32.999 -47.0068,63.999 -27,31 -65.9932,78.992 -87.9932,106.992 -22,28 -64.9951,77.999 -94.9951,108.999 -87.9981,93 -97.0088,110.007 -129.0088,242.007 -37,154 -89.996,313.002 -128.9941,382.002 -89,160 -127.998,224.998 -150.9961,247.998 -14,15 -44.0059,48.004 -66.0059,74.004 -109.9981,131 -280.0029,277.995 -371.001,319.995 -17,7 -36.0039,21.004 -44.0039,29.004 -7,9 -20,15.996 -30,15.996 -9,0 -24.9951,8.995 -34.9951,19.995 -10,11 -24.999,20.01 -33.999,20.01 -9,0 -27.001,8.995 -41.001,19.995 -14,11 -39.001,19.995 -56.001,19.995 -18,0 -37.999,8.01 -48.999,20.01 -12,13 -31.0049,19.995 -55.0049,19.995 -24,0 -42.9902,6.995 -54.9902,19.995 -14,16 -31.0098,20.01 -80.0098,20.01 -46.9981,0 -68.995,4.995 -87.9931,19.995 -19,15 -40.0019,19.995 -90,19.995 -51,0 -67.002,4.01 -82.002,20.01 -10,11 -26.0059,19.995 -36.0059,19.995 -9.9981,0 -20.9902,5.001 -24.9902,11.001 -3,6 -24.999,19.004 -48.999,29.004 -24,10 -45.999,22.989 -48.999,28.989 -4,6 -17.0058,11.001 -29.0039,11.001 -12,0 -33.0069,9.01 -47.0069,20.01 -14,11 -32.001,19.995 -41.001,19.995 -9,0 -26.9902,7.999 -39.9902,18.999 -13,10 -40,21.005 -60,25.005 -21,4 -42.0029,12.995 -48.0029,19.995 -7,8 -27,16.995 -45,19.995 -19,4 -39,13.01 -45,20.01 -7,8 -31.0049,16.995 -55.0049,19.995 -25,4 -45.999,12.995 -48.999,19.995 -3,7 -22.9961,18.005 -45.9961,25.005 -23,6 -41.001,16.006 -41.001,21.006 0,5 -18.0049,12.996 -40.0049,15.996 -24,4 -53.9922,19.005 -76.9922,40.005 -20.9981,19 -47.0078,36.99 -58.0078,39.99 -26,8 -115.9911,91.007 -133.9892,122.007 -8,17 -13.0118,55.993 -12.0118,117.993 1,90 2.9991,96.007 33.9991,137.007 45.9981,61 85.0117,152.001 117.0117,281.001 16,62 37.999,127.997 48.999,146.997 34,58 60.9912,146.999 80.9912,273.999 30,182 25,299.996 -15,360.996 -15,24 -16.9961,68.003 -15.9961,468.003 1,452 -4.9999,584.006 -37.998,741.006 -26,127 -51.997,178.995 -124.9951,244.995 -33,32 -81.0108,75.994 -106.0108,98.994 -25,23 -75.9921,58.999 -114.9902,78.999 l -70.0049,37.002 -218.9941,3.003 c -148.9981,2 -216.0069,0 -212.0069,-7.002 4,-6 -5.0077,-12.992 -21.0058,-16.992 -236.9962,-52 -382.0029,-131.001 -573.9991,-311.001 -124.9962,-118 -278.9902,-332.009 -264.9902,-369.009 11,-30 37.002,-10.996 82.002,59.004 178.9962,276 422.9998,470.995 683.9941,544.995 117.9981,34 255.997,55.001 364.9951,56.001 99.9981,1 101.0009,1.008 198.999,-46.992 54,-26 97.0098,-49.002 95.0098,-52.002 -3,-2 -22.0039,0 -44.0039,4.995 -56.9981,13 -148.9932,12.008 -162.9932,-1.992 -7,-7 -12.0117,-20 -12.0117,-30 0,-16 9.9981,-18.003 82.9981,-18.003 131.9962,0 176.0097,-17.999 268.0078,-108.999 86.9981,-86 95.9961,-107.005 120.9961,-280.005 14,-98 18.0097,-834.994 5.0097,-1118.994 -19.9981,-463 -87.0116,-844.998 -170.0097,-967.998 -27,-41 -94.0058,-92.999 -119.0039,-93.999 -3,0 9.0028,28.999 26.0009,63.999 41,82 68.0049,195.994 70.0049,293.994 1,71 -0.999,77.007 -18.999,77.007 -16,0 -20.9971,-9.005 -26.9971,-55.005 -27.9981,-214 -50.0097,-280.995 -118.0078,-349.995 -62.9981,-64 -93.9942,-68.006 -45.9961,-6.006 34,44 70.999,155.997 63.999,191.997 -2,11 -12.0019,18.999 -22.0019,18.999 -20,0 -22.9961,-5.998 -45.9961,-97.998 -24,-90 -144.997,-188.992 -259.9951,-211.992 -19,-4 -46,-13.998 -60,-22.998 -37,-25 -334.0117,-24.008 -485.0098,1.992 -106.9981,18 -110.9922,18.998 -166.9922,67.998 -40.9981,35 -65.9989,68.006 -86.997,111.006 -30,64 -66,203.991 -75,290.991 -6,55 -17.0118,72.007 -42.0118,62.007 -34.9981,-13 4.0117,-236.994 65.0098,-368.994 32,-73 27.9961,-85.006 -14.0039,-36.006 -70.9981,85 -129,289.004 -150,524.004 -7,80 -9.0059,84.99 -36.0059,84.99 -23.9981,0 -24,1.003 -15,-116.997 12,-164 70.002,-395.998 112.002,-457.998 25,-35 18.0039,-48 -15.9961,-30 -95.9981,50 -197.0087,456.015 -242.0068,975.996 -17,200 -18,1083.011 0,1201.011 14,99 42.0117,185.988 72.0117,227.988 21,29 156.9961,117.007 165.9961,107.007 3,-3 -9.0049,-27.009 -25.0049,-54.009 C 4993.998,20317.993 4963.0019,20070 5025,20070 c 18,0 22.9932,22.005 27.9932,130.005 7,155 85.0048,290.991 228.0029,395.991 27,19 48.999,42.998 48.999,52.998 0,9 16.9981,27.009 37.9981,39.009 z M 8917.7783,556.15723 c 2.8618,-3.31144 4.2295,-4.36037 6.9873,-7.73438 -1.1554,1.50551 0.4509,2.04246 -0.7617,3.57422 -1.8186,2.34401 -4.3811,1.89141 -6.2256,4.16016 z M 2659.1895,491.66016 c 8.4169,27.46594 20.7937,53.75757 44.458,80.20019 -21.9242,-23.87471 -44.7599,-50.46525 -49.6436,-61.86035 -3.0285,-6.84196 6.0933,-11.825 5.1856,-18.33984 z M 6797.0068,18940.005 c 3,0 3,-46.012 0,-102.012 -4,-57 -11.0107,-115.993 -16.0107,-132.993 -7,-21 -7.999,-2.005 -3.999,64.995 10,163 11.0097,170.01 20.0097,170.01 z M 5125.0049,17910 c 1,0 55.9961,-17.994 120.9961,-38.994 182.9962,-61 294.9989,-81.008 484.9951,-88.008 252.9943,-9 512.0028,26.007 678.999,92.007 35,14 69,24.99 75,24.99 8,0 13.999,-31.992 18.999,-91.992 L 6510,17715 l 42.9932,-40.005 c 22.9981,-22 62.0028,-56.988 86.0009,-77.988 41,-34 42.0098,-37.002 20.0098,-37.002 -13,0 -53.0039,5.001 -89.0039,11.001 -40,7 -310.0027,11.989 -694.9951,13.989 -562.9905,3 -727.0038,-0.991 -900,-20.991 l -50.0098,-6.006 40.0049,33.003 c 22,19 61.001,52.992 86.001,76.992 l 46.9922,43.008 7.0019,91.992 c 7,85 11.0098,107.007 20.0098,107.007 z M 5100,17523.003 c 85.9981,8 1352.997,5.001 1429.9951,-3.999 220.9962,-25 305.0136,-47.001 545.0098,-146.001 247.9943,-103 276.995,-116.006 372.9931,-171.006 l 62.0069,-35.991 -87.0117,-24.009 c -176.9981,-46 -285.997,-112.999 -447.9932,-273.999 -50.3552,-50.027 -90.7549,-69.038 -133.667,-88.843 2.7715,-4.352 5.7445,-10.611 9.4775,-19.687 1.9034,-4.626 -3.2117,-15.646 -9.4042,-26.499 4.2233,-4.654 1.0347,-8.229 -5.2442,-16.919 -1.2759,-1.491 -16.177,-18.854 -16.333,-18.794 -2.1726,0.84 -3.7815,1.417 -5.7715,2.168 -0.3372,-0.283 -0.5288,-0.438 -0.8789,-0.733 -5.7966,-4.885 -11.8028,-9.839 -17.7539,-14.765 2.4511,0.455 10.3825,-1.504 12.5684,-0.923 27.9981,8 52.0019,10.998 52.0019,7.998 0,-3 -66.9911,-138.996 -148.9892,-300.996 -299.9943,-593 -400.0116,-826.024 -651.0059,-1510.005 -134.9981,-367 -177.0087,-439.995 -257.0068,-439.995 -76,0 -116.997,76.007 -282.9932,527.988 -230.9962,628 -358.0018,919.02 -645.9961,1481.001 -48.0585,92.638 -65.0279,129.859 -84.9756,172.046 -1.4502,2.129 -2.8769,4.278 -4.2334,6.475 -3.9237,5.807 -7.932,11.544 -11.8945,17.314 -3.8294,5.843 -7.2921,11.913 -10.708,18.003 -3.2973,5.295 -4.1616,9.096 -8.3643,14.194 -3.0504,5.071 -6.0492,10.176 -9.0088,15.293 -3.9148,6.721 -6.0121,14.174 -7.6025,21.724 -0.144,0.751 -0.2695,1.511 -0.4395,2.256 -0.148,0.649 0.2763,-1.303 0.3663,-1.963 0.039,-0.302 -0.3594,0.498 -0.4834,0.776 -1.5748,3.529 -1.3651,3.126 -2.5489,6.328 0.365,0.217 -2.3487,4.134 -5.6982,8.892 -3.5204,4.831 -7.2091,9.695 -10.4883,14.546 -4.372,5.748 -7.31,12.312 -9.7559,19.058 0.01,-0.28 0.186,-1.078 0.044,-0.835 -5.0561,8.667 -9.0992,18.095 -13.2861,27.202 -3.1996,7.923 -7.4549,15.313 -11.3233,22.91 -3.1076,7.586 -7.2593,14.419 -12.0849,20.991 -6.7229,8.62 -12.1426,18.158 -17.2706,27.788 -12.1184,6.837 -19.2293,3.979 -36.2548,21.006 -156.9981,158 -248.0009,212.003 -431.9971,258.003 l -86.001,21.006 46.0108,28.989 c 76.9981,49 168.9979,93.002 398.9941,187.002 203.9962,83 231.0068,92.001 370.0049,116.001 82.9981,14 165.9951,27.004 184.9951,29.004 z m 2355,-429.009 c 114.9981,26 303.999,15.002 431.9971,-22.998 244.9943,-74 469.0057,-200.996 637.0019,-360.996 219.9962,-211 351.0078,-436.996 441.0059,-765.996 19,-70 32.9961,-129.001 30.9961,-131.001 -2,-2 -19.002,4.996 -37.002,15.996 -64.9981,37 -134.9979,53.002 -293.9941,67.002 -373.9924,33 -561.0047,96.993 -783.999,267.993 -44,34 -190.0087,146.009 -325.0049,249.009 -232.9962,178 -396.0039,308.992 -487.002,391.992 l -41.001,37.002 33.003,33.999 c 86.9981,89 269.0009,189.998 393.999,217.998 z m -464.0039,-292.998 101.9971,-88.989 c 55.9981,-48 136.0117,-115.008 177.0117,-148.008 40.9981,-33 122,-95.999 180,-138.999 57.9981,-43 186.0019,-141.994 285,-218.994 98.9981,-78 215.9951,-162.013 259.9951,-188.013 142.9981,-84 155.002,-98.991 157.002,-200.991 2,-84 -7.002,-149.007 -52.002,-377.007 -41,-205 -62.0049,-343.996 -55.0049,-375.996 29,-147 29.004,-131.005 -8.9941,-280.005 -76.9981,-292 -191.999,-602.994 -281.9971,-758.994 -119.9981,-209 -177,-354.995 -210,-529.995 -33,-180 -46.0088,-704.01 -24.0088,-980.01 25,-317 72.0049,-683.001 115.0049,-896.001 14,-67 23.0059,-123.991 21.0059,-125.991 -2,-3 -24.003,16.993 -48.003,42.993 -46.9981,52 -117.0078,118.002 -163.0078,157.002 -97.9981,81 -340.9969,220.006 -507.9931,291.006 -90,38 -155.9981,101.996 -187.9981,180.996 -23,59 -24.0049,67 -25.0049,390 -1,418 -14.9989,499.995 -116.997,694.995 -108.9981,208 -224.0059,440 -261.0059,525 -22,50 -49.9922,113.01 -61.9922,140.01 -88.9981,196 -145,392.989 -165,583.989 -24,228 31.998,520.009 150.9961,789.009 6,12 13.999,32 18.999,45 4,12 14.0059,36.002 21.0059,52.002 7,17 16.998,40.99 22.998,54.99 67,169 178.9961,425.01 263.9942,605.01 90.9981,193 321.0049,639.993 370.0049,717.993 z m -2382.9932,-7.998 c 8,18 21.999,-1 86.9971,-120 221.9962,-409 435.0028,-862.001 603.999,-1286.001 167.9981,-418 195.0039,-525.002 194.0039,-772.002 0,-180 -17.0048,-285.995 -78.0029,-469.995 -62.9981,-193 -196.0009,-485.005 -386.9971,-850.005 -126.9962,-241 -140.0068,-307.995 -137.0068,-709.995 2,-313 -5.002,-382.004 -52.002,-464.004 -35.9981,-63 -96.9911,-109.002 -208.9892,-157.002 -106.9981,-45 -231.0117,-111.989 -335.0098,-178.989 -118.9981,-78 -187.0009,-134.999 -288.999,-243.999 -26,-29 -50.002,-50.999 -52.002,-48.999 -2,2 3.0118,34.993 12.0118,72.993 85.9981,413 151.999,1111 138.999,1470 -18,454 -63.0029,655.005 -206.001,910.005 -142.9981,254 -240.0126,505.999 -331.0107,858.999 -29,112 -29.9922,121.998 -16.9922,172.998 23,98 14.9941,197.003 -36.0059,438.003 -63.9981,304 -71.9931,453.988 -27.9931,512.988 10.9981,15 48.9941,43.007 83.9941,62.007 85.9981,48 146.0009,89 258.999,180 52,42 181.0019,141.005 285,220.005 233.9962,176 483.0078,379.993 493.0078,402.993 z m 2043.5742,-40.723 c 0.9533,-3.173 1.2977,-6.435 1.1133,-9.741 0.2203,-0.144 0.4409,-0.291 0.6592,-0.439 0.3157,3.361 1.017,6.785 1.875,10.122 -1.2561,0.08 -2.379,-0.03 -3.6475,0.06 z m -1658.8476,-53.452 c -0.4795,-1.662 -1.0036,-3.295 -1.5967,-4.892 0.4997,0.05 0.879,0.02 1.377,0.07 -0.4558,1.598 0.5736,3.21 0.2197,4.819 z m 1649.9414,-3.427 c -0.2884,-0.04 -0.565,-0.144 -0.8496,-0.206 0.3215,-0.04 0.5286,-0.02 0.8496,-0.06 0.1046,0.16 0.1572,0.287 0,0.264 z m -3235.415,-780.147 c 9.4981,-4.75 5.2509,-21.746 -0.2491,-57.246 -11,-75 2.0019,-191.998 45,-397.998 60,-291 69.9893,-399.01 43.9893,-470.01 -22,-61 -356.9979,-560.988 -533.9941,-797.988 -167.9981,-224 -397.0126,-426.011 -564.0088,-496.011 -128.9981,-55 -153.9981,-20.991 -172.9981,234.009 -3,47 -10.9961,102.999 -15.9961,123.999 -12,44 -58.001,96.002 -86.001,97.002 -9.9981,0 -25.9912,1.999 -35.9912,3.999 -11,2 -73.0116,-10.001 -140.0097,-26.001 -66,-17 -130.9981,-28.005 -142.9981,-25.005 -27.9981,7 -38.9961,40.994 -30.9961,98.994 9,66 74.9903,287.002 99.9903,337.002 116.9962,229 197.0068,391.01 197.0068,395.01 0,3 21.0087,58.988 47.0068,122.988 122.9981,310 389.9999,638.01 600.9961,740.01 56,27 121.9951,38.996 252.9932,45.996 120.9981,7 253.0107,28.005 354.0088,55.005 49.4981,13.5 72.751,20.995 82.251,16.245 z m 4785.747,-9.243 c -7,18 -8.9981,17.995 105,-10.005 129.9981,-32 210.997,-45.001 372.9932,-56.001 234.9962,-16 329.0116,-70 523.0078,-300 150.9981,-177 253.9932,-351.005 327.9932,-550.005 20.9981,-57 83.999,-191.989 138.999,-298.989 60.9981,-118 108.0039,-223.001 119.0039,-266.001 10,-38 24.999,-89.002 33.999,-112.002 8,-23 18.0059,-73.006 21.0059,-111.006 11,-110 -13.0087,-119.99 -175.0049,-69.99 -82.9981,25 -169.996,26.995 -203.9941,4.995 -45,-30 -58.001,-71.007 -71.001,-212.007 -17,-186 -27.0098,-224.995 -65.0098,-244.995 -86.9981,-47 -408.9999,183.995 -615.9961,439.995 -129.9962,162 -566.9951,805 -589.9951,870 -25,69 -16.0107,168.005 43.9893,460.005 41.9981,203 55.0029,312.002 48.0029,382.002 -4,33 -9.9932,66.004 -12.9932,74.004 z m -2642.0068,-1201.011 35.0098,-75 c 18.9981,-41 44.997,-95 56.997,-120 35,-70 87.997,-116.995 139.9951,-124.995 86,-13 147.004,38.005 209.004,175.005 16.9981,36 37.999,83 48.999,105 l 18.0029,39.99 0.9961,-99.99 c 2,-106 2.0049,-109.998 25.0049,-247.998 37.9981,-223 208.0018,-639.013 427.998,-1043.013 89.9981,-167 132.9971,-285.99 146.9971,-414.99 6,-52 8.998,-218.009 7.998,-369.009 -3,-300 2.004,-340.988 59.004,-437.988 12.9981,-24 22.9912,-45.007 20.9912,-47.007 -1,-2 -27.9932,1.002 -57.9932,7.002 -90.9981,17 -323.0019,3.998 -405,-22.002 -257.9943,-82 -373.0039,-203.995 -472.002,-499.995 -3,-8 -14.9931,13.995 -27.9931,49.995 -79.9981,234 -226.0038,380 -450,450 -84.9981,27 -329.0068,39.006 -415.0049,21.006 -29,-6 -54.001,-10.013 -56.001,-8.013 -2,2 9.0049,28.008 25.0049,58.008 51,93 55.001,126.004 56.001,494.004 2,315 2.998,346 22.998,420 15,55 77.0019,188.995 195,424.995 292.9943,584.981 385.9932,862.996 387.9932,1170.996 z m -3844.9951,-555 c 8,0 14.0039,-8.999 14.0039,-18.999 0,-11 12.001,-32.995 26.001,-49.995 32.9981,-40 76.0019,-41.006 210,-6.006 184.9962,48 197.9951,38 214.9951,-165 14,-173 24.0077,-214.992 66.0058,-256.992 34,-34 37.9952,-34.996 94.9952,-30.996 43.9981,3 78.999,14.996 138.999,45.996 43.9981,23 76.997,36.004 71.997,29.004 -3.9981,-6 -59.9951,-83.01 -124.9951,-170.01 -143.9962,-193 -252.0008,-357 -386.997,-585 -247.9962,-424 -361.0097,-579.002 -591.0059,-817.002 -320.9943,-332 -492.00776,-540.996 -591.00586,-720.996 -34.99924,-63 -44.99002,-74.003 -88.98926,-93.003 -26.99943,-12 -70.99861,-25.992 -97.99804,-31.992 -131.99753,-31 -250.00212,44.003 -311.00098,198.003 -16.99962,43 -17.00939,50.996 -5.00977,75.996 8,15 58.999,160.99 112.99805,324.99 227.99563,683.981 377.006,1080.007 494.00391,1307.007 86.99815,169 233.00965,390.002 381.00585,577.002 93.9981,119 352.9971,387.993 371.9971,387.993 z m 8196.0058,0 c 5,0 65.9983,-57.002 135.0002,-127.002 285,-291 490.999,-575 648.999,-900 99,-203 275.999,-680.007 468.999,-1262.988 48,-146 95.992,-282.003 106.992,-303.003 l 18.999,-39.009 -30,-63.999 c -39,-83 -114.002,-158.994 -172.002,-173.994 -57,-16 -132.999,-5.999 -213.999,26.001 -58,23 -66.991,31.002 -95.991,82.002 -114,202 -272.997,399 -581.997,720 -240.9981,250 -356.0156,407.002 -590.0099,802.002 -181.9962,308 -418.997,658.997 -514.9951,761.997 -32,35 -22.006,46.999 16.9921,18.999 57,-41 134.9991,-71.001 183.9991,-71.001 100.9981,0 138.0029,60.005 153.0029,250.005 11,140 22,193.988 45,212.988 28,23 58.0117,22.002 170.0098,-7.998 157.9962,-41 221.0028,-28.989 236.0009,46.011 3,16 10,28.989 15,28.989 z M 4954.9951,12000 c 91.9981,12 255.0019,4 330,-15 200.9962,-51 351.9981,-184 427.9981,-375 58.9981,-150 60.0136,-160.024 64.0136,-835.005 5,-651.981 -0.013,-758.991 -38.0127,-860.9911 -38.9981,-102.9981 -109.9901,-174.0048 -212.9882,-213.0029 -90,-33 -221.0067,-40.9971 -476.001,-26.9971 -380.9924,21 -582.0155,95.9931 -762.0117,283.9893 -197.9962,207.9998 -246.9923,515.0118 -143.9942,912.0118 58,225 167.0097,582.993 208.0078,687.993 70,176 153.0009,273.995 296.9971,349.995 68.9981,37 210.9931,80.007 305.9912,92.007 z m 1440,0 c 86.9981,13 262,3.994 367.9981,-21.006 50.9981,-11 132.0069,-39.999 182.0068,-63.999 203.9962,-99 286.997,-224.992 394.9951,-601.992 28,-98 69,-235.01 90,-305.01 65,-212 84.0088,-328.988 84.0088,-512.988 0,-145 -3.0078,-168.005 -28.0078,-250.005 -40,-133 -94.9941,-222.999 -196.9922,-318.999 -118.9981,-113.9981 -245.0028,-177.0049 -438.999,-220.0049 -153.9981,-34 -539.0067,-49.9971 -678.0029,-26.9971 -126.9981,21 -225.9952,86.0049 -274.9952,183.003 -61.9981,124.9962 -62.0068,118.0144 -62.0068,843.003 0,718.981 2.0019,745.992 60,901.992 78.9981,209 266.0008,356.003 499.9951,393.003 z m -1995,-224.004 c 0,-3 -15.9951,-30.999 -34.9951,-63.999 -57.9981,-96 -99.996,-207.993 -158.9941,-417.993 -31,-110 -71.0019,-251.004 -90,-314.004 -83,-280 -99.0099,-563.995 -42.0118,-754.995 37,-122 89.0019,-216.012 165,-297.0118 120.9981,-128.9981 229.0058,-195.9931 397.002,-245.9912 120.9981,-36 206.0117,-49.0069 395.0098,-62.0069 94.8015,-5.9625 109.65,-26.1542 148.4619,-40.5469 6.3077,3.0125 13.9194,5.3022 22.9687,6.4893 3.8668,0.507 7.7266,1.0199 11.5723,1.6699 8.2563,1.653 16.4487,3.8241 24.9023,4.2041 3.7024,0.406 7.5217,0.6212 10.9278,2.2412 9.413,3.972 18.7348,8.3381 29.2675,7.9981 3.7391,0.06 7.4882,0.1262 11.2207,0.3662 4.396,0.292 8.7526,0.952 13.1104,1.582 3.4285,0.4469 6.8765,0.8411 10.3271,1.0694 l -1.7578,2.9296 61.9922,6.0059 c 33,4 80.9961,12.0029 105.9961,18.0029 67.9981,16 181.0009,72.9941 213.999,106.9922 39,41 49.0118,38.9923 42.0118,-6.0058 -3,-21 -13.0059,-116.9902 -21.0059,-212.9883 -20,-219.9962 -39.001,-375.0019 -71.001,-562.9981 -28.4002,-170.4056 -40.0565,-171.5055 -55.4736,-209.3847 6.5228,-9.8227 8.4127,-25.5978 1.4795,-46.1719 -3.677,-10.911 -7.9487,-21.6163 -11.1182,-32.6953 -1.8707,-7.307 -3.2962,-14.6489 -5.7715,-21.7969 -2.1714,-5.628 -3.8069,-11.4333 -5.6396,-17.1973 -1.4349,-5.81 -2.7517,-11.626 -4.4238,-17.373 -3.1192,-8.023 -6.6111,-15.9481 -10.2686,-23.7451 -0.8311,-1.492 -1.6592,-2.9904 -2.4902,-4.4824 -4.8353,-8.6828 -10.8794,-7.4581 -16.5088,-9.2432 -1.5059,-7.0242 -2.9502,-14.0237 -4.9072,-20.9473 -2.3516,-6.081 -3.5628,-12.4774 -5.5811,-18.6914 -0.3514,-0.9647 -0.6518,-1.9418 -0.9668,-2.915 -0.7171,-6.6591 -1.1872,-13.3808 -3.3545,-19.7315 -2.3167,-5.1639 -3.8292,-10.5826 -5.581,-15.9375 -0.1453,-4.1914 -0.1926,-8.3911 -0.2198,-12.583 0.2783,-8.08 -0.2844,-16.0165 -2.0068,-23.9355 -1.491,-8.207 -2.7349,-16.4006 -4.8779,-24.4776 -1.9358,-9.3039 -5.2983,-18.1894 -8.9356,-26.9384 -2.1479,-5.012 -4.17,-10.0961 -5.039,-15.4981 -2.2463,-11.875 -7.6258,-22.7037 -11.6016,-34.0137 -4.5498,-11.6199 -10.0379,-22.8343 -15.6152,-33.9843 -4.1756,-7.6179 -7.5645,-15.5492 -11.8799,-23.086 -9.8312,-118.3617 -14.7214,-221.9511 -85.2246,-467.1826 -44,-153.9962 -103.9893,-380.9921 -133.9893,-504.9902 -30,-123.9981 -58.999,-234.0098 -63.999,-245.0098 -5,-11 -23.0049,-102.9921 -40.0049,-204.9902 -97.9981,-591.9886 -218.0106,-919.0058 -362.0068,-989.0039 -81,-39 -179.9931,-17.003 -230.9912,49.9951 -75,100.9981 -100.001,223.0183 -116.001,571.0107 -6,137.9981 -12.0049,182.9981 -25.0049,202.9981 -44,67.9981 -93.0029,6.9864 -206.001,-260.0098 -67.9981,-159.9962 -106.9883,-231.9921 -152.9883,-279.9902 -51.9981,-54 -91.0038,-59.004 -142.0019,-21.0059 -69.9981,54 -192.0059,364.0058 -216.0059,547.002 -5,40.9981 -25.0039,143.0019 -44.0039,225 -65.9981,282.9943 -106.001,572.0067 -131.001,941.001 -8,127.9962 -9,704.0048 0,843.0029 16,269.9943 30.0059,436.9989 51.0059,619.9951 2,19 7.0049,60 10.0049,90 4,30 7.9902,65.9951 9.9902,79.9951 10,69.9981 15.0098,109.0019 20.0098,150 3,25 10,70.0049 15,100.0049 5,30 12,72.9951 15,94.9951 3,22 10,66.002 15,97.002 6,31.9981 11.9892,68.0099 13.9892,80.0099 6,33 67.0069,334.998 77.0069,382.998 37.9981,171 73.0039,303.995 104.0039,394.995 56.9981,166 66.9892,213.005 73.9892,355.005 6,132 8.0146,144.99 38.0127,204.99 59,119 183.9999,246.002 360.9961,367.002 71,49 91.9922,59.999 91.9922,48.999 z m 2826.0059,0 c 9,-3 49.0039,-28.997 89.0039,-56.997 164.9962,-114 290.997,-243.004 349.9951,-359.004 26,-50 29.0059,-67.995 36.0059,-199.995 7,-149 8.9911,-160 88.9892,-405 122.9981,-379 273.0098,-1299.0114 305.0098,-1875 4,-57.9981 8.001,-118 11.001,-135 4,-34 3.9892,-826.997 -1.0108,-889.9951 -2,-22 -5.9902,-85.0098 -9.9902,-140.0098 -4,-54.9981 -8.001,-116 -11.001,-135 C 8067.0039,7433.9989 8060,7381 8055,7350 c -2,-14 -7.0049,-45.0049 -10.0049,-70.0049 -11,-77.9981 -62.9941,-340.9883 -83.9941,-422.9883 -11,-42.9981 -25,-113.0116 -30,-155.0097 -18,-136.9981 -102.0097,-389.997 -163.0078,-484.9951 -94.9981,-148.9981 -182.9912,-111.9943 -298.9893,127.0019 -32,66.9981 -59.0039,126.001 -59.0039,131.001 0,21 -107.9999,230.998 -127.998,247.998 -11,10 -29.0088,17 -39.0088,15 -35,-7 -45.9942,-55.0067 -53.9942,-243.0029 -12,-284.9943 -30.996,-401.0068 -83.9941,-505.0049 -43,-83.9981 -98.0048,-120 -183.0029,-120 -186.9981,0 -326.0039,317.0231 -442.002,1010.0098 -17,101.9981 -35.0049,193.9902 -40.0049,204.9902 -5,11 -32,117.0068 -60,235.0049 C 6332.997,7518.9962 6288,7687.9989 6240,7849.9951 c -37.3062,125.425 -32.7866,165.959 -44.0625,237.9932 -8.8048,-10.5221 -16.7319,-14.6995 -20.1562,5.7275 -0.9839,5.867 -1.7939,11.5509 -1.7139,17.5049 -0.2811,5.424 -0.5153,10.8619 -1.7578,16.1719 -1.9419,8.347 -3.9784,16.7301 -3.7354,25.3711 -0.1828,3.719 -0.1821,7.5201 -1.2451,11.1181 -1.8049,6.654 -4.1226,13.1045 -6.7529,19.4825 -2.8357,8.9611 -6.8109,17.5116 -9.3897,26.5576 -3.1896,9.988 -8.2139,19.3054 -11.1474,29.3994 -2.2371,6.27 -4.162,13.328 -6.6211,18.999 -2.8859,5.338 -4.0227,7.4707 -6.211,11.3818 -3.461,6.192 -5.5731,12.7615 -7.8076,19.4385 -3.4992,11.081 -4.9766,22.5288 -7.1191,33.9258 -3.4313,16.7 -7.4322,33.2897 -10.3125,50.0977 -2.9088,16.9728 0.3512,29.4367 6.5185,37.0019 -0.7043,2.8364 -1.4491,5.6589 -1.8457,8.5986 -0.02,0.756 -0.537,6.2202 0.044,3.9112 -0.9314,3.256 -1.8483,6.532 -3.252,9.624 -1.6298,4.814 -2.9469,9.6973 -3.5449,14.7363 -0.7306,2.0106 -1.5075,4.1286 -2.2705,6.2256 -0.9568,2.366 -4.404,-1.5005 -5.2881,1.7432 -3.3414,12.798 -6.1806,25.7682 -11.0303,38.1152 -3.9586,9.761 -8.0164,19.5658 -10.1367,29.9268 -1.9495,8.907 -4.4311,17.81 -3.9551,27.041 -0.042,7.664 -0.09,15.3224 -0.3222,22.9834 -0.2938,5.858 -0.7365,11.7152 -1.4795,17.5342 -1.198,7.832 -2.6142,15.5462 -5.0244,23.1152 -0.3305,2.897 -1.0876,5.5519 -2.6075,8.0859 -3.1565,5.0432 -6.3007,10.0958 -9.5214,15.1026 l -4.2481,-31.9043 -16.0107,54.9902 c -0.4447,1.5792 -0.7132,5.7994 -1.1573,7.3975 -1.241,1.8612 -2.5439,3.6792 -3.75,5.5664 -12.4726,19.5396 -11.6847,36.3369 -4.3505,45.9814 -44.8851,176.594 -87.1994,429.5284 -118.7403,756.0645 -11,115.9981 -21.9902,231.999 -24.9902,258.999 l -6.0059,49.9951 45,-41.997 c 24,-22 66.003,-51.9952 93.003,-64.9952 64.6496,-33.3035 136.5935,-52.456 218.4375,-61.7138 4.1757,0.9095 8.2549,2.535 12.539,2.9004 4.4348,0.435 8.8648,0.6357 13.3008,0.7177 4.436,0.083 8.8748,0.036 13.3301,-0.029 4.9649,-0.03 9.934,-0.075 14.8974,-0.205 8.9432,-0.228 17.893,-0.5431 26.8067,-1.3331 0.7193,-0.076 1.4348,-0.1822 2.1533,-0.2636 0.1427,0 0.2532,0.3263 0.3955,0.3222 0.1272,0 0.049,-0.3896 0.1758,-0.3955 12.3827,-1.4291 24.6478,-3.6198 36.8408,-6.2256 22.547,-4.7964 44.9199,-10.3554 67.3242,-15.7763 32.2446,11.331 69.4093,19.7176 198.794,30 197.9962,15 265.0008,27.001 401.997,71.001 143.9981,45.9981 239.0078,107.0019 351.0059,225 80.9981,85.0001 141.9971,194.0001 176.9971,315.0001 20,70 22.998,100.989 22.998,268.989 0,158 -4.0038,207.003 -22.0019,288.003 -22,100 -106.9922,393.997 -189.9903,656.997 -42.9981,136 -110.0078,291.01 -133.0078,305.01 -16,10 -11.9941,27.991 6.0059,20.991 z M 280.12207,11435.493 c 8.62481,26.25 20.88026,10.506 41.87988,-31.494 34.99943,-70 92.00017,-130.005 153.99903,-160.005 49.99905,-24 61.9937,-25.991 136.99218,-20.991 44.99924,3 101.01406,11.995 124.01368,19.995 l 41.99707,15.996 -6.00586,-69.99 c -6,-68 -5.00022,-70.006 33.99902,-126.006 86.99829,-125 101.0092,-187.996 80.00977,-345.996 -14.99981,-108 -15.01194,-119.007 21.9873,-332.007 11.99981,-66 21.00586,-140.992 21.00586,-166.992 0,-42 -3.00057,-49.003 -30,-63.003 -38.99924,-20 -61.99978,-18.994 -93.99902,6.006 -51.99905,41 -86.00098,145.993 -86.00098,267.993 0,116 -16.00385,123.997 -112.00195,56.997 -73.99867,-51 -140.00057,-86.001 -165,-86.001 -40.99924,-1 -53.00429,-24.99 -74.00391,-144.99 -10.99981,-64 -30.98945,-146.007 -43.98926,-182.007 -13.99962,-36 -25.00488,-78.9951 -25.00488,-94.9951 0,-33.9981 79.99938,-175.9999 157.99805,-277.998 35.99924,-48 44.00236,-110.001 18.00293,-146.001 -13.99981,-18 -14.99667,-17.999 -45.9961,11.001 -16.99962,17 -72.00388,61.9921 -123.00293,99.9902 -49.99905,39 -101.00214,84.001 -112.00195,101.001 -12.99981,19 -43.99685,122.0068 -75.99609,250.0049 -73.99867,298 -74.002485,340.994 0.99609,578.994 126.99753,407 129.99531,423.01 139.99512,620.01 6.49981,126 11.50214,194.238 20.12695,220.488 z m 11053.87193,-7.5 c 4,-13 11.011,-98.993 16.011,-192.993 10,-201 20,-251.995 105,-529.995 114,-372 113.997,-369.006 41.997,-666.006 -25,-100.9981 -48.002,-197.9951 -52.002,-214.9951 -9,-43.9981 -61.993,-103.0019 -147.993,-165 -39,-28 -89.01,-68.0078 -110.01,-88.0078 -37,-35 -38.998,-34.9922 -52.998,-16.9922 -23,32 -17,87.0048 15,138.0029 16,25 34.005,48.9981 40.005,52.9981 6,3 22.998,29.995 37.998,57.9931 14,29 37.998,70.0069 52.998,92.0069 40,59.9981 41.005,76.9938 10.005,167.9881 -16,45 -36.011,129.002 -46.011,187.002 -9,58 -19.99,112.007 -24.99,122.007 -5,9 -35.006,23.999 -66.006,33.999 -32,10 -92.996,42.001 -135.996,71.001 -98,67 -117.008,68.001 -118.008,11.001 0,-24 -2.995,-56.008 -4.995,-73.008 -23,-165 -37.994,-209.994 -83.994,-248.994 -36,-30 -48.01,-30.997 -95.01,-11.997 -34,15 -34.995,16.99 -34.995,69.99 0,30 11.005,117.008 25.005,193.008 14,76 27,152.003 30,168.003 3,17 -1.009,78 -9.009,135 -20,160 -5.997,221.99 78.003,339.99 38,54 48.006,92.005 36.006,145.005 -5,22 -7.01,40.993 -5.01,42.993 2,3 33.009,-2.993 69.009,-12.993 90,-24 188.994,-17.001 248.994,18.999 53,30 110.995,93.999 139.995,153.999 24,48 32.001,51.995 41.001,19.995 z m -246.987,-1057.998 33.999,-11.001 c 19,-7 37.001,-14.988 41.001,-17.988 4,-4 18.988,-63.008 32.988,-133.008 13,-70 34,-151.992 45,-181.992 l 21.006,-55.005 -33.999,-52.9981 c -19,-28.9981 -45.008,-71.999 -58.008,-93.999 -13,-23 -39.989,-62.0078 -58.989,-88.0078 l -35.01,-46.9922 -16.992,20.9912 c -31,39 -23.003,89.0019 26.997,165 59,89.9981 63.002,117.0099 37.002,245.0099 -12,58 -24.008,137.997 -28.008,176.997 z m -10567.00212,-5.991 c 4,-1 -0.006,-47.005 -6.00586,-100.005 -6.99981,-54 -20.00019,-128.996 -30,-165.996 -22.99943,-95 -14.99416,-137.0039 40.00489,-217.002 51.99886,-73.9981 60.98868,-130.997 28.98925,-169.9951 L 535.00488,9690 l -37.99804,51.0059 c -20.99962,27.9981 -56.0035,82.9901 -78.00293,122.9882 -21.99962,39 -47.00489,78.0079 -55.00489,88.0079 -13.99962,13.9981 -11.99552,26 14.00391,105 16.99962,48 34.99726,123.992 41.99707,166.992 5.99981,44 14.99921,88.005 18.99902,100.005 7,18 68.00624,48.005 81.00586,40.005 z M 5350.3857,9413.3203 c -0.1677,-6.9422 -0.2808,-13.8857 -0.3369,-20.8301 0.8514,0.086 1.6892,0.6939 2.5342,0.7178 -0.159,12.1413 -2.0018,9.5447 -2.1973,20.1123 z m 42.334,-285.0293 c 0,-0.068 -0.012,-0.1366 -0.015,-0.2051 0.1048,0.029 0.419,3e-4 0.5273,0.029 -0.1627,0.058 -0.3486,0.1179 -0.5127,0.1758 z m 42.4951,-72.3779 c -0.039,-0.2025 -0.076,-0.4071 -0.1171,-0.6152 0.1266,-0.084 0.2278,-0.1645 0.3515,-0.2491 -0.1111,0.27 -0.1238,0.5949 -0.2344,0.8643 z m 793.3448,-8.042 c 0.3681,-0.142 0.7309,-0.2975 1.0986,-0.4395 0.2236,0.053 0.4573,0.092 0.6738,0.1465 -0.5902,0.087 -1.1818,0.201 -1.7724,0.293 z M 4356.0059,6657.9932 c 1,-2 7.9892,-94.9883 13.9892,-205.9864 12,-238.9943 30.0049,-349.0028 70.0049,-446.0009 52.9981,-125.9981 115.999,-181.0118 221.9971,-192.0118 127.9962,-12.9981 215.0049,56.0097 310.0049,246.0059 43.9981,88.9981 47.997,69.9981 11.997,-60 -44.9981,-166.9962 -116.9969,-299.9989 -237.9931,-439.9951 -31,-36 -72.0069,-97.0108 -92.0069,-136.0108 -47.9981,-95.9981 -53.003,-166.9999 -25.0049,-390.9961 12,-94.9981 21.0059,-175.0039 21.0059,-179.0039 0,-4 -20.9961,14.0049 -45.9961,40.0049 -25,26 -70.0049,59.0078 -100.0049,73.0078 -46.9981,21 -66.995,24.9873 -132.9931,21.9873 -70,-4 -88.0118,-8.9901 -162.0118,-47.9882 -68.9981,-36 -89.994,-42.0127 -121.9921,-38.0127 -52,7 -128.0126,60.0116 -249.0088,170.0097 -175.9981,162.9981 -240.0019,205.9971 -300,206.9971 -33,0 -33.9981,6.0058 -7.9981,89.0039 31,98.9981 49,217.994 60,399.9902 13,203.9962 25.0098,326.0097 50.0098,501.0059 32,215.9962 35.995,225.998 57.9931,142.998 7,-26.9981 35.0069,-92.995 62.0069,-147.9931 93.9981,-193.9962 192.998,-241.9991 300.9961,-146.001 58.9981,52 97.0009,117.0028 183.999,318.999 66.9981,156.9981 103.0059,226.9903 111.0059,219.9903 z m 2899.9951,-7.9981 c 7,20 29.0058,-22.995 119.0039,-230.9912 76.9981,-176.9962 125,-258.9999 180,-307.998 36.9981,-32 89.001,-47.002 131.001,-37.002 66.9981,17 158.999,146.995 213.999,305.9912 38.9981,110.9981 37.996,112.9962 68.9941,-105 27,-190.9962 38.0059,-298.994 51.0059,-504.9902 11,-173.9962 32.996,-314 68.9941,-427.9981 l 18.003,-60 -47.0069,-6.0058 c -60.9981,-8 -111.998,-42.999 -240.9961,-161.9971 -171.9962,-158.9962 -251.9989,-213.999 -311.997,-213.999 -14,0 -60.998,18.9971 -105.9961,41.9971 -149.9981,74.9981 -285.0107,61.9893 -384.0088,-39.0088 -26,-26 -47.9912,-44.9971 -50.9912,-41.9971 -2,2 3.9892,74.0107 13.9892,159.0088 39,319.9943 27.005,369.9999 -140.9912,570.9961 -35,41.9981 -83.999,111.9951 -108.999,154.9951 -46,80.9981 -115.0059,270.0019 -126.0059,345 -5,42 -4.003,41.0069 34.9951,-35.9912 87,-172.9962 169.0078,-241.0039 291.0059,-239.0039 115.9981,1 184.0019,55.0068 240,190.0049 40,95.9981 58.0049,207.9978 70.0049,436.9921 6,105.9981 12.9961,198.9971 15.9961,206.9971 z m 773.4961,-1441.1133 c 43.9981,21.875 68.0028,12.1182 93.5009,-18.8818 28,-32 56.0029,-111.997 116.001,-327.9932 122.9981,-437.9905 140.9951,-790.0153 64.9951,-1251.0058 C 8272.996,3425.0048 8240.998,3317.999 8197.998,3258.999 8156.9999,3202.0009 8133.9991,3184 8081.001,3165 7966.0029,3125 7872.0049,3215.9989 7727.0068,3507.9932 7664.0087,3635.9894 7618.9961,3690 7575.9961,3690 c -51,0 -70.9961,-47.0018 -90.9961,-217.998 -18,-147.9981 -47.0087,-262.9952 -77.0068,-304.9952 C 7384.9932,3135.0087 7300,3090 7260,3090 c -55.9981,0 -125.0019,34.0019 -180,90 -57.9981,58.9981 -133.997,192.0029 -169.9951,296.001 -34,96.9981 -44.0089,264.996 -31.0108,496.9922 17,299.9943 48.0098,597.0107 65.0098,616.0107 7,9 15.9951,39.996 19.9951,68.9941 22,169.9981 121.0078,274.0059 261.0059,276.0059 51.9981,1 72.9921,-5.0049 144.9902,-40.0049 47,-23 97.9981,-45.0029 112.9981,-48.0029 70.9981,-16 161.0067,34.999 333.0029,191.9971 105.4981,95.4981 169.501,149.0155 213.501,170.8886 z m -4431.5039,-7.8808 c 19.9981,-11 84.0077,-60.9981 141.0058,-112.9981 167.9981,-151.9962 213.0009,-186.998 273.999,-217.998 73,-37 114.0068,-34.0089 205.0049,13.9892 130.9981,67 224.0029,69.0079 311.001,5.0098 C 4593.002,4843.0058 4650,4723.9942 4650,4635.9961 c 0,-16 7,-36.9961 15,-45.9961 30,-33 83.001,-707.0038 71.001,-900 -10,-146.9981 -28.0069,-216.0029 -92.0069,-341.001 -70.9981,-137.9962 -134,-209.995 -210,-237.9931 -29.9981,-12 -68.997,-21.0059 -86.997,-21.0059 -45,1 -117.9981,40.0048 -142.9981,78.0029 -28.9981,43 -61.0039,165.9941 -74.0039,286.9922 -15,135.9981 -27.0038,186.0069 -52.0019,212.0069 -54,57.9981 -114.9941,7.9952 -196.9922,-161.001 -136.9981,-278.9943 -231.0029,-375.9961 -341.001,-345.9961 -119.9981,32 -190.0001,169.9959 -240,474.9902 -69.9981,428.9924 -47.9981,789.0134 75,1229.0039 101.9981,362.9943 119.9951,390.0001 222.9932,337.002 z" />
    <path
       d="M5590 20681 c-155 -51 -266 -126 -334 -224 -39 -56 -44 -89 -15 -95 11 -2 26 13 42 41 57 97 199 189 372 241 29 9 40 17 40 31 0 27 -36 29 -105 6z"
       id="path4" />
    <path
       d="M5946 20520 c-137 -17 -277 -61 -332 -105 -25 -20 -27 -26 -17 -43 13 -22 8 -32 -18 -32 -9 0 -54 -19 -99 -41 -59 -30 -104 -63 -161 -118 -78 -75 -94 -106 -63 -118 10 -4 36 14 77 54 138 134 297 203 465 203 70 0 94 17 65 45 -15 15 -29 17 -98 12 -44 -4 -91 -9 -105 -13 -25 -6 -25 -6 -4 10 31 23 149 63 219 75 177 30 289 22 468 -31 54 -15 102 -26 108 -23 5 4 9 15 9 25 0 14 -18 24 -77 44 -154 51 -311 71 -437 56z"
       id="path6" />
    <path
       d="M5875 20269 c-173 -27 -250 -58 -219 -89 8 -8 46 -4 130 13 189 39 399 35 539 -10 28 -8 86 -33 129 -55 80 -40 102 -40 94 -2 -4 26 -152 98 -253 125 -93 24 -322 34 -420 18z"
       id="path8" />
    <path
       d="M5462 20060 c-78 -22 -176 -81 -180 -109 -5 -34 22 -34 77 0 29 17 82 42 119 54 50 17 68 28 70 42 4 30 -15 32 -86 13z"
       id="path10" />
    <path
       d="M5701 20062 c-18 -35 5 -41 165 -41 176 -1 347 -21 459 -55 66 -20 82 -22 94 -11 25 25 3 42 -81 65 -150 41 -230 51 -429 57 -190 5 -197 5 -208 -15z"
       id="path12" />
    <path
       d="M5543 19909 c-38 -11 -73 -52 -73 -85 0 -33 26 -31 60 6 17 18 38 30 53 30 35 0 62 27 46 46 -13 16 -39 17 -86 3z"
       id="path14" />
    <path
       d="M3711 17090 c-13 -11 -33 -20 -45 -20 -11 0 -34 -10 -51 -21 -16 -12 -23 -19 -15 -16 8 2 38 12 65 21 28 9 79 24 115 35 l65 19 -55 1 c-41 0 -61 -5 -79 -19z"
       id="path16" />
    <path
       d="M3511 17010 c-13 -11 -29 -20 -36 -20 -7 0 -18 -7 -25 -15 -11 -13 115 36 129 51 15 15 -48 0 -68 -16z"
       id="path18" />
  </g>
</svg>
